<?xml version="1.0" standalone="no"?>
<!DOCTYPE svg PUBLIC "-//W3C//DTD SVG 20010904//EN"
 "http://www.w3.org/TR/2001/REC-SVG-20010904/DTD/svg10.dtd">
<svg version="1.0" xmlns="http://www.w3.org/2000/svg"
 width="35vw" height="35vh" viewBox="0 0 481.000000 291.000000"
 preserveAspectRatio="xMidYMid meet">

<g transform="translate(0.000000,291.000000) scale(0.100000,-0.100000)"
fill="#000000" stroke="none">
<path d="M2348 2710 c-234 -29 -277 -109 -85 -156 l67 -17 0 -97 0 -97 -62
-13 c-459 -90 -802 -429 -904 -892 -35 -161 -18 -414 40 -584 120 -353 420
-633 785 -732 88 -24 112 -26 286 -26 161 0 201 4 265 21 185 51 329 126 465
240 84 70 195 201 188 220 -4 10 7 13 43 15 74 3 85 2 140 -4 27 -4 55 -4 61
0 7 5 7 45 -3 137 -17 171 -18 162 10 169 l24 6 -20 72 c-10 40 -23 111 -28
158 -5 47 -14 123 -19 170 -5 47 -10 94 -11 105 -1 13 -6 7 -14 -17 l-11 -38
-37 25 c-66 44 -70 42 -270 -155 l-183 -179 26 -26 26 -26 121 101 c70 58 129
100 138 98 14 -2 17 -17 16 -89 -1 -47 -5 -96 -10 -110 -18 -47 -23 -125 -12
-193 10 -65 10 -70 -16 -115 -176 -303 -528 -501 -891 -501 -271 0 -514 98
-712 286 -288 274 -394 663 -285 1042 101 352 382 623 743 719 82 22 117 26
246 26 103 0 172 -5 220 -16 320 -73 578 -273 715 -552 37 -77 47 -107 43
-132 -3 -17 0 -39 6 -50 9 -15 10 -14 11 14 0 32 0 32 28 17 35 -18 82 -18
109 1 21 15 23 14 29 -9 3 -14 -1 -37 -11 -56 -16 -30 -16 -31 3 -21 22 11 52
69 52 98 0 10 -9 33 -21 52 -19 32 -19 34 -2 55 10 11 14 18 9 14 -5 -5 -14 2
-20 15 -17 33 -67 30 -84 -5 -7 -16 -17 -28 -22 -28 -5 0 -30 40 -55 90 -160
309 -473 538 -812 595 l-43 7 0 99 0 99 28 6 c120 26 171 55 159 88 -8 21 -72
51 -133 64 -73 16 -247 22 -326 12z"/>
<path d="M462 2510 c-149 -40 -262 -122 -351 -255 -66 -98 -92 -177 -98 -297
-7 -123 7 -200 57 -303 86 -180 263 -307 473 -340 l37 -6 0 -102 c0 -56 -7
-307 -15 -557 -8 -250 -15 -479 -15 -507 l0 -53 60 0 c33 0 60 3 60 8 0 4 -9
248 -20 542 -11 294 -20 565 -20 602 l0 67 48 6 c245 33 441 197 515 430 30
97 30 251 0 350 -41 131 -134 253 -253 332 -130 87 -333 123 -478 83z"/>
<path d="M2440 2145 c0 -54 0 -55 30 -55 30 0 30 1 30 55 0 54 0 55 -30 55
-30 0 -30 -1 -30 -55z"/>
<path d="M4382 1786 c-1 -55 2 -96 6 -90 5 5 6 50 2 99 l-7 90 -1 -99z"/>
<path d="M4380 1598 c0 -29 5 -60 10 -68 7 -11 10 0 10 37 0 28 5 55 11 59 8
4 7 9 -2 15 -25 16 -29 10 -29 -43z"/>
<path d="M4310 1542 c6 -13 14 -21 18 -18 3 4 -2 14 -12 24 -18 16 -18 16 -6
-6z"/>
<path d="M4349 1477 l23 -38 -16 -547 c-21 -694 -22 -622 12 -622 15 0 33 -5
38 -10 6 -6 18 -8 28 -4 14 5 16 16 12 63 -3 31 -13 290 -21 576 -17 545 -20
590 -36 579 -6 -3 -22 5 -36 17 l-26 24 22 -38z"/>
<path d="M3491 1424 c0 -11 3 -14 6 -6 3 7 2 16 -1 19 -3 4 -6 -2 -5 -13z"/>
<path d="M2414 1340 c-30 -12 -71 -64 -79 -100 -9 -43 11 -94 51 -130 28 -24
44 -30 80 -30 25 0 58 7 72 15 26 15 37 12 242 -59 118 -41 218 -71 223 -67 4
4 -81 56 -189 117 -196 108 -197 109 -210 152 -14 49 -36 77 -76 98 -30 15
-82 17 -114 4z"/>
<path d="M1480 1215 c0 -24 3 -25 55 -25 52 0 55 1 55 25 0 24 -3 25 -55 25
-52 0 -55 -1 -55 -25z"/>
<path d="M3050 946 c0 -2 7 -7 16 -10 8 -3 12 -2 9 4 -6 10 -25 14 -25 6z"/>
<path d="M3395 453 c23 -159 31 -247 27 -304 l-4 -66 42 -7 c23 -4 56 -14 72
-22 27 -14 35 -14 78 0 43 14 51 14 78 0 26 -13 38 -13 72 -3 22 7 39 17 37
23 -2 5 -25 21 -51 36 -26 14 -55 38 -63 53 -9 18 -18 81 -23 175 -5 81 -10
148 -10 150 0 1 -22 2 -50 2 -59 0 -58 7 -35 -156 10 -66 13 -131 9 -163 l-7
-55 -23 28 c-30 34 -32 43 -40 209 l-6 137 -54 0 -54 0 5 -37z"/>
<path d="M2440 285 c0 -54 0 -55 30 -55 30 0 30 1 30 55 0 54 0 55 -30 55 -30
0 -30 -1 -30 -55z"/>
</g>
</svg>
