<svg width="35vw" height="35vh" viewBox="0 0 371 257" fill="none" xmlns="http://www.w3.org/2000/svg">
<g clip-path="url(#clip0_4327_82098)">
<path d="M80.3895 250.532H86.1656L88.9136 228.328L80.3887 228.329L80.3895 250.532Z" fill="#A0616A"/>
<path d="M78.916 248.653L90.2911 248.652H90.2915C92.214 248.652 94.0578 249.414 95.4172 250.768C96.7767 252.123 97.5404 253.961 97.5406 255.877V256.112L78.9164 256.112L78.916 248.653Z" fill="#2F2E41"/>
<path d="M118.544 250.532H124.32L127.068 228.328L118.543 228.329L118.544 250.532Z" fill="#A0616A"/>
<path d="M117.07 248.653L128.445 248.652H128.446C130.368 248.652 132.212 249.414 133.572 250.768C134.931 252.123 135.695 253.961 135.695 255.877V256.112L117.071 256.112L117.07 248.653Z" fill="#2F2E41"/>
<path d="M259.841 256.145H0V256.999H259.841V256.145Z" fill="#E6E6E6"/>
<path d="M75.5527 245.714H90.5152L100.079 162.258L117.662 245.714H127.758V146.196L79.7571 131.879L75.5527 245.714Z" fill="#2F2E41"/>
<path d="M101.064 58.4502C108.27 58.4502 114.112 52.6279 114.112 45.4458C114.112 38.2637 108.27 32.4414 101.064 32.4414C93.8575 32.4414 88.0156 38.2637 88.0156 45.4458C88.0156 52.6279 93.8575 58.4502 101.064 58.4502Z" fill="#A0616A"/>
<path d="M80.8081 133.976C94.809 144.888 110.263 150.389 127.757 148.293C120.369 122.438 118.177 96.779 125.305 71.4712L110.589 64.8366L94.0482 63.7891L82.026 67.3131C80.3348 67.8094 78.8542 68.846 77.8122 70.2633C76.7702 71.6806 76.2246 73.4 76.2594 75.1567C76.6838 96.7396 75.2441 116.938 80.8081 133.976Z" fill="#E6E6E6"/>
<path d="M88.577 38.9081C89.8323 36.5476 91.4273 31.8433 93.961 30.9708C95.368 30.5058 96.8223 30.197 98.2973 30.0501L102.604 31.7009L100.26 29.8841C100.716 29.857 101.172 29.8349 101.628 29.8177L104.534 30.9315L103.047 29.7791C105.756 29.7514 108.553 30.0321 110.652 31.6757C112.441 33.0768 114.214 38.3846 114.501 40.6345C114.807 42.7868 114.7 44.9776 114.185 47.0899L113.449 47.7873C113.191 47.199 112.998 46.5851 112.871 45.9558C112.608 44.78 112.101 43.6719 111.384 42.7021C110.666 41.7322 109.754 40.922 108.705 40.3229L108.665 40.3004C107.431 39.6081 105.934 39.64 104.518 39.6908L97.7963 39.9319C96.1791 39.9899 94.4377 40.0919 93.1769 41.1029C92.3253 41.7857 91.8151 42.7936 91.3299 43.7695C90.7034 45.0298 89.4791 49.783 89.4791 49.783C89.4791 49.783 88.7865 48.8858 88.4545 49.5536C87.9221 47.8112 87.5984 46.0122 87.4902 44.1941C87.3843 42.3678 87.7589 40.5457 88.577 38.9081Z" fill="#2F2E41"/>
<path d="M361.285 122.884H210.65C208.075 122.881 205.605 121.86 203.784 120.045C201.963 118.23 200.938 115.769 200.936 113.202V9.68182C200.938 7.11492 201.963 4.65399 203.784 2.83892C205.605 1.02386 208.075 0.00289163 210.65 0H361.285C363.86 0.00289163 366.33 1.02386 368.151 2.83892C369.972 4.65399 370.997 7.11492 371 9.68182V113.202C370.997 115.769 369.972 118.23 368.151 120.045C366.33 121.86 363.86 122.881 361.285 122.884ZM210.65 0.854542C208.302 0.857194 206.051 1.78805 204.39 3.44291C202.73 5.09777 201.796 7.34149 201.793 9.68182V113.202C201.796 115.543 202.73 117.786 204.39 119.441C206.051 121.096 208.302 122.027 210.65 122.03H361.285C363.633 122.027 365.884 121.096 367.545 119.441C369.205 117.786 370.139 115.543 370.142 113.202V9.68182C370.139 7.34148 369.205 5.09777 367.545 3.44291C365.884 1.78805 363.633 0.857193 361.285 0.854542H210.65Z" fill="#F0F0F0"/>
<path d="M185.074 131.576V28.0554C185.077 25.6018 186.056 23.2494 187.797 21.5145C189.538 19.7795 191.898 18.8036 194.36 18.8008H344.995C347.457 18.8036 349.817 19.7795 351.558 21.5145C353.299 23.2494 354.278 25.6018 354.281 28.0554V131.576C354.278 134.03 353.299 136.382 351.558 138.117C349.817 139.852 347.457 140.828 344.995 140.831H194.36C191.898 140.828 189.538 139.852 187.797 138.117C186.056 136.382 185.077 134.03 185.074 131.576Z" fill="#E4E4E4"/>
<path d="M190.998 131.757V27.8724C190.999 27.116 191.301 26.3909 191.837 25.8561C192.374 25.3212 193.102 25.0204 193.861 25.0195H345.493C346.252 25.0204 346.979 25.3212 347.516 25.8561C348.053 26.3909 348.355 27.116 348.355 27.8724V131.757C348.355 132.514 348.053 133.239 347.516 133.774C346.979 134.309 346.252 134.609 345.493 134.61H193.861C193.102 134.609 192.374 134.309 191.837 133.774C191.301 133.239 190.999 132.514 190.998 131.757Z" fill="white"/>
<path d="M252.095 162.267C254.425 162.267 256.315 160.384 256.315 158.061C256.315 155.738 254.425 153.855 252.095 153.855C249.764 153.855 247.875 155.738 247.875 158.061C247.875 160.384 249.764 162.267 252.095 162.267Z" fill="#E6E6E6"/>
<path d="M269.677 162.267C272.007 162.267 273.897 160.384 273.897 158.061C273.897 155.738 272.007 153.855 269.677 153.855C267.346 153.855 265.457 155.738 265.457 158.061C265.457 160.384 267.346 162.267 269.677 162.267Z" fill="#E6E6E6"/>
<path d="M287.259 162.267C289.589 162.267 291.479 160.384 291.479 158.061C291.479 155.738 289.589 153.855 287.259 153.855C284.928 153.855 283.039 155.738 283.039 158.061C283.039 160.384 284.928 162.267 287.259 162.267Z" fill="#E6E6E6"/>
<path d="M269.677 110.347C263.618 110.347 257.695 108.557 252.657 105.202C247.619 101.847 243.692 97.078 241.373 91.4988C239.054 85.9197 238.448 79.7805 239.63 73.8576C240.812 67.9348 243.73 62.4943 248.014 58.2242C252.299 53.9541 257.757 51.0461 263.7 49.868C269.643 48.6898 275.803 49.2945 281.401 51.6054C286.999 53.9164 291.784 57.8299 295.15 62.851C298.516 67.8722 300.313 73.7754 300.313 79.8143C300.304 87.9094 297.073 95.6703 291.33 101.394C285.587 107.118 277.8 110.338 269.677 110.347Z" fill="#007E7E"/>
<path d="M281.766 76.8043H272.7V67.7686C272.698 66.9706 272.379 66.2059 271.813 65.6421C271.246 65.0784 270.478 64.7617 269.678 64.7617C268.877 64.7617 268.109 65.0784 267.542 65.6421C266.976 66.2059 266.657 66.9706 266.655 67.7686V76.8043H257.589C256.789 76.8056 256.021 77.1236 255.456 77.6882C254.89 78.2529 254.572 79.0183 254.572 79.8162C254.572 80.6141 254.89 81.3794 255.456 81.9441C256.021 82.5088 256.789 82.8267 257.589 82.8281H266.655V91.8638C266.657 92.6617 266.976 93.4265 267.542 93.9903C268.109 94.554 268.877 94.8706 269.678 94.8706C270.478 94.8706 271.246 94.554 271.813 93.9903C272.379 93.4265 272.698 92.6617 272.7 91.8638V82.8281H281.766C282.163 82.829 282.556 82.7519 282.923 82.6012C283.291 82.4505 283.624 82.2292 283.906 81.9499C284.187 81.6706 284.41 81.3387 284.563 80.9733C284.716 80.6079 284.794 80.2161 284.795 79.8204C284.795 79.4246 284.718 79.0326 284.566 78.6668C284.415 78.301 284.192 77.9685 283.912 77.6884C283.631 77.4083 283.298 77.186 282.931 77.0343C282.564 76.8826 282.171 76.8045 281.774 76.8043H281.766Z" fill="white"/>
<path d="M46.485 230.648C45.8186 226.367 44.5186 222.207 42.6274 218.306L42.3517 217.738L40.304 220.001L41.8213 216.63L41.722 216.435C40.3832 213.793 38.8993 211.227 37.2773 208.748L36.9764 208.289L36.5752 208.733L36.8561 208.109L36.7154 207.898C34.7065 204.895 33.1631 202.996 33.1478 202.977L32.7113 202.441L32.4306 203.08C32.3791 203.197 27.2779 214.912 26.6022 226.488L26.5915 226.668L30.0247 230.805L26.5234 228.614L26.5295 229.409C26.5402 230.77 26.6331 232.128 26.8077 233.478C26.9619 234.638 27.1434 235.772 27.3522 236.877C27.6832 236.888 28.0051 236.988 28.2832 237.167C28.0413 235.931 27.8327 234.661 27.6574 233.357C27.5222 232.316 27.437 231.258 27.4031 230.204L34.1754 234.441L27.4688 226.362C28.0794 216.574 31.8694 206.713 32.9334 204.111C33.5045 204.849 34.5817 206.282 35.8704 208.196L33.5277 213.401L36.8676 209.71C38.3156 211.957 39.6494 214.274 40.864 216.654L37.2566 224.669L42.134 219.278C43.8376 222.93 45.0169 226.802 45.637 230.781C46.4907 237.207 46.324 243.381 45.1677 248.165C44.0601 252.747 42.1081 255.564 39.8119 255.893C39.3393 255.958 38.8585 255.929 38.397 255.809C38.0269 256.071 37.5815 256.206 37.1277 256.195H37.0024C37.7147 256.589 38.5131 256.803 39.3276 256.817C39.5289 256.817 39.7299 256.803 39.9291 256.774C42.6286 256.388 44.7845 253.407 45.9993 248.381C47.1816 243.49 47.3547 237.196 46.485 230.648Z" fill="#E6E6E6"/>
<path d="M38.9293 256.478C35.3981 256.478 30.3067 254.542 25.2568 251.018C24.5135 250.495 23.8037 249.927 23.1316 249.315L22.566 248.801L24.7045 248.187L21.857 248.083L21.7368 247.957C16.3993 242.386 13.0778 234.517 13.0447 234.438L12.7852 233.816L13.46 233.847C13.5272 233.85 15.1318 233.925 17.5433 234.266L17.6936 234.287V234.286L18.2224 234.366C20.1916 234.665 22.1424 235.073 24.0655 235.59L24.2708 235.646L24.9124 237.221L24.8151 235.808L25.4037 235.977C28.1937 236.78 30.8436 238.004 33.261 239.608C40.9408 244.968 45.1903 251.666 42.9439 254.863C42.176 255.956 40.7626 256.478 38.9293 256.478ZM24.2917 249.194C24.7608 249.59 25.249 249.967 25.7497 250.319C32.7835 255.228 40.3358 257.084 42.2414 254.373C44.1465 251.662 39.8125 245.223 32.7776 240.314C30.6073 238.875 28.2428 237.751 25.755 236.975L26.1353 242.494L23.6367 236.36C21.9912 235.925 20.3077 235.567 18.6224 235.294L18.8985 239.3L17.1788 235.078C15.8464 234.896 14.7723 234.797 14.119 234.746C15.0097 236.696 17.9529 242.716 22.2373 247.242L30.0957 247.528L24.2917 249.194Z" fill="#E6E6E6"/>
<path d="M89.0159 142.5C89.0128 141.848 88.8665 141.205 88.5871 140.616C88.3077 140.027 87.9021 139.506 87.3989 139.09C86.8956 138.674 86.307 138.373 85.6744 138.208C85.0418 138.043 84.3806 138.019 83.7375 138.136L75.9068 124.352L72.6758 130.952L80.1595 143.647C80.429 144.711 81.0807 145.639 81.9911 146.256C82.9014 146.873 84.0072 147.135 85.0989 146.994C86.1906 146.853 87.1923 146.317 87.9142 145.489C88.6361 144.66 89.0281 143.597 89.0159 142.5Z" fill="#A0616A"/>
<path d="M124.029 157.826C123.72 157.252 123.541 156.617 123.505 155.967C123.469 155.316 123.576 154.665 123.819 154.061C124.063 153.456 124.436 152.911 124.913 152.466C125.391 152.02 125.96 151.685 126.582 151.482L126.871 135.645L133.682 140.301L132.363 154.627C132.635 155.69 132.506 156.815 132.001 157.79C131.496 158.765 130.649 159.521 129.622 159.916C128.595 160.31 127.458 160.315 126.427 159.93C125.397 159.545 124.543 158.797 124.029 157.826Z" fill="#A0616A"/>
<path d="M76.6038 140.61L82.2097 135.372L79.3328 107.088L82.6613 67.1055C75.4308 69.3702 67.6673 75.4541 66.3885 82.8994L61.8145 109.532L76.6038 140.61Z" fill="#E6E6E6"/>
<path opacity="0.2" d="M79.8578 91.8984L75.3027 110.056L82.2089 135.822L77.7554 111.453L79.8578 91.8984Z" fill="black"/>
<path d="M124.954 150.386L134.064 151.433L131.931 84.0166C131.836 81.0042 130.872 78.0829 129.155 75.6019C127.438 73.1209 125.041 71.1851 122.249 70.0259L118.998 68.6758L119.874 100.277L124.954 150.386Z" fill="#E6E6E6"/>
<path opacity="0.2" d="M121.543 101.312L125.059 140.221L119.105 101.584L121.543 101.312Z" fill="black"/>
</g>
<defs>
<clipPath id="clip0_4327_82098">
<rect width="371" height="257" fill="white"/>
</clipPath>
</defs>
</svg>