<svg width="19" height="19" viewBox="0 0 19 19" fill="none" xmlns="http://www.w3.org/2000/svg">
<g clip-path="url(#clip0_104_14440)">
<path d="M8.70703 5.54232H10.2904V7.12565H8.70703V5.54232ZM8.70703 8.70898H10.2904V13.459H8.70703V8.70898ZM9.4987 1.58398C5.1287 1.58398 1.58203 5.13065 1.58203 9.50065C1.58203 13.8707 5.1287 17.4173 9.4987 17.4173C13.8687 17.4173 17.4154 13.8707 17.4154 9.50065C17.4154 5.13065 13.8687 1.58398 9.4987 1.58398ZM9.4987 15.834C6.00745 15.834 3.16536 12.9919 3.16536 9.50065C3.16536 6.0094 6.00745 3.16732 9.4987 3.16732C12.9899 3.16732 15.832 6.0094 15.832 9.50065C15.832 12.9919 12.9899 15.834 9.4987 15.834Z" fill="#3D3C3C"/>
</g>
<defs>
<clipPath id="clip0_104_14440">
<rect width="19" height="19" fill="white"/>
</clipPath>
</defs>
</svg>
