<svg width="14" height="21" viewBox="0 0 14 21" fill="none" xmlns="http://www.w3.org/2000/svg">
<rect width="14" height="21" fill="#DDDDDD"/>
<rect width="22295" height="10346" transform="translate(-12773 -8166)" fill="#D6D5D4"/>
<g clip-path="url(#clip0_105_0)">
<rect width="1440" height="1262" transform="translate(-512 -508)" fill="#EEEEEE"/>
<g filter="url(#filter0_d_105_0)">
<rect x="-416" y="-119" width="1312" height="266" rx="4" fill="white"/>
<rect width="1264" height="218" transform="translate(-392 -95)" fill="white"/>
<g clip-path="url(#clip1_105_0)">
<path d="M7 0.5C3.13 0.5 0 3.63 0 7.5C0 12.75 7 20.5 7 20.5C7 20.5 14 12.75 14 7.5C14 3.63 10.87 0.5 7 0.5ZM7 10C5.62 10 4.5 8.88 4.5 7.5C4.5 6.12 5.62 5 7 5C8.38 5 9.5 6.12 9.5 7.5C9.5 8.88 8.38 10 7 10Z" fill="#F47738"/>
</g>
</g>
</g>
<defs>
<filter id="filter0_d_105_0" x="-418" y="-120" width="1316" height="270" filterUnits="userSpaceOnUse" color-interpolation-filters="sRGB">
<feFlood flood-opacity="0" result="BackgroundImageFix"/>
<feColorMatrix in="SourceAlpha" type="matrix" values="0 0 0 0 0 0 0 0 0 0 0 0 0 0 0 0 0 0 127 0" result="hardAlpha"/>
<feOffset dy="1"/>
<feGaussianBlur stdDeviation="1"/>
<feColorMatrix type="matrix" values="0 0 0 0 0 0 0 0 0 0 0 0 0 0 0 0 0 0 0.16 0"/>
<feBlend mode="normal" in2="BackgroundImageFix" result="effect1_dropShadow_105_0"/>
<feBlend mode="normal" in="SourceGraphic" in2="effect1_dropShadow_105_0" result="shape"/>
</filter>
<clipPath id="clip0_105_0">
<rect width="1440" height="1262" fill="white" transform="translate(-512 -508)"/>
</clipPath>
<clipPath id="clip1_105_0">
<rect width="24" height="24" fill="white" transform="translate(-5 -1.5)"/>
</clipPath>
</defs>
</svg>
