<svg xmlns="http://www.w3.org/2000/svg" width="246" height="191" viewBox="0 0 246 191" fill="none">
  <g clip-path="url(#clip0_54904_124274)">
    <path opacity="0.1" d="M86.4399 187.3C110.043 187.3 129.177 183.689 129.177 179.234C129.177 174.779 110.043 171.168 86.4399 171.168C62.837 171.168 43.7031 174.779 43.7031 179.234C43.7031 183.689 62.837 187.3 86.4399 187.3Z" fill="#F47738"/>
    <path opacity="0.1" d="M142.848 26.935C127.141 26.3934 112.182 21.3399 97.8977 15.8125C83.6133 10.2851 69.4647 4.16287 54.1343 1.23475C44.2741 -0.648821 32.9965 -0.917212 25.0534 4.34422C17.4064 9.42188 14.9359 18.1627 13.6084 26.2797C12.6085 32.3874 12.0212 38.8167 14.7587 44.5351C16.6614 48.5054 20.0347 51.8421 22.3693 55.6456C30.492 68.8765 24.7501 85.1927 15.9503 98.1118C11.8247 104.171 7.03165 109.96 3.84519 116.403C0.658742 122.847 -0.814354 130.256 1.97409 136.847C4.73585 143.376 11.3199 148.269 18.4524 151.715C32.9383 158.715 50.0014 160.717 66.652 161.853C103.499 164.363 140.54 163.278 177.484 162.187C191.157 161.786 204.888 161.377 218.337 159.271C225.807 158.101 233.517 156.244 238.941 151.761C245.824 146.072 247.53 136.438 242.916 129.306C235.18 117.337 213.794 114.365 208.38 101.523C205.405 94.4534 208.46 86.5806 212.787 80.0256C222.067 65.9605 237.621 53.6217 238.439 37.5473C239.002 26.507 231.525 15.4498 219.963 10.2246C207.846 4.74801 191.04 5.43712 182.104 14.502C172.895 23.8255 156.717 27.4162 142.848 26.935Z" fill="#F47738"/>
    <path d="M130.367 87.4648L122.933 82.4718L126.683 76.9105L107.05 75.351L99.9949 80.7865L91.1636 75.8539L83.7981 76.7364L83.7107 74.8021C83.6195 72.7855 83.4162 70.7755 83.1016 68.7814C83.1331 68.1769 83.1549 67.483 83.1525 66.7286C83.1525 63.549 82.7205 59.3345 80.8228 56.5249L81.2596 52.6127L77.7164 48.4418C78.2854 47.3125 78.9342 46.2249 79.6579 45.1872C79.7792 45.0131 79.9005 44.8439 80.0316 44.6794C84.6305 44.3482 88.2586 40.581 88.2586 35.9749C88.2586 35.7621 88.2586 35.5493 88.2343 35.339C88.2343 35.2543 88.2174 35.1673 88.2076 35.0827C88.6566 35.3245 89.1104 35.5662 89.5643 35.808C89.6492 35.9289 89.7463 36.0498 89.8531 36.1925L89.8749 36.2191L90.0108 36.3859L90.0545 36.4367C90.103 36.4947 90.154 36.5503 90.2049 36.6084L90.2389 36.6471C90.3675 36.7897 90.5034 36.9348 90.6491 37.0775C90.6664 37.0915 90.6826 37.1069 90.6976 37.1234L90.8796 37.2927L90.9306 37.3386C91.0859 37.4764 91.2509 37.6094 91.4159 37.7351L91.4693 37.7738L91.678 37.9165L91.746 37.96C91.8261 38.0084 91.9086 38.0591 91.9887 38.1051L92.0178 38.122C92.1124 38.1728 92.2095 38.2211 92.3066 38.2671L92.3551 38.2864C92.4376 38.3219 92.5185 38.3557 92.5978 38.388L92.673 38.4146C92.758 38.4436 92.8405 38.4702 92.9279 38.4944L92.9813 38.5089C93.088 38.5355 93.1948 38.5572 93.304 38.5742H93.3162C93.419 38.5907 93.5227 38.6012 93.6268 38.6056H93.6972C93.7901 38.6104 93.8833 38.6104 93.9763 38.6056H94.0369C94.1533 38.5989 94.2692 38.5852 94.384 38.5645C94.927 38.4934 95.4483 38.307 95.9129 38.018C96.0312 37.9392 96.136 37.8421 96.2235 37.7303C96.7089 37.0968 96.175 36.4028 96.175 36.4028C95.9857 35.9531 94.7577 35.6364 94.7577 35.6364C94.7577 35.6364 90.8748 34.0212 90.8748 32.7348C90.8748 31.4485 89.904 24.775 79.8836 23.2493C79.8836 23.2493 73.365 22.8842 71.5328 26.3612L71.4939 26.7674C70.9552 27.1035 70.5086 27.7781 69.9772 27.9763C69.7475 28.0255 69.5261 28.1069 69.3195 28.2181V28.1722C69.2581 28.2257 69.2078 28.2905 69.1714 28.3632C69.0573 28.5895 68.9888 28.836 68.97 29.0886C68.9153 29.3972 68.8078 29.6941 68.6521 29.9663C68.6087 30.0437 68.56 30.118 68.5065 30.1888L68.4652 30.254C68.747 30.2759 69.0299 30.2303 69.2904 30.1211C69.2493 30.4521 69.1678 30.7769 69.0477 31.0882C69.2019 31.0932 69.3544 31.0539 69.4869 30.975C69.6194 30.8962 69.7264 30.781 69.7951 30.6433V30.624L69.8267 30.5805C69.8877 30.4685 69.9381 30.3511 69.9772 30.2299L69.9505 30.2589C69.999 30.1017 70.0427 29.9421 70.0961 29.7874C70.1205 29.7002 70.1608 29.6183 70.215 29.5456C70.2798 29.4805 70.359 29.4315 70.4462 29.4026C70.5335 29.3736 70.6263 29.3654 70.7173 29.3787L70.6178 31.4751H70.6615C70.6031 31.6276 70.5316 31.7748 70.448 31.9152C70.1034 32.4713 69.4772 32.8509 69.2467 33.4602C69.1473 33.7541 69.1093 34.0651 69.135 34.3742C69.135 34.5555 69.1569 34.7393 69.1714 34.9207V34.9061C69.2054 35.3897 69.2151 35.8491 68.953 36.2384C68.7734 36.5044 68.4846 36.7051 68.3851 37.0073C68.3576 37.0916 68.3453 37.18 68.3487 37.2685C68.3682 37.5334 68.4237 37.7945 68.5138 38.0446C68.5148 38.0398 68.5148 38.0349 68.5138 38.0301C68.5743 38.2141 68.5885 38.41 68.555 38.6007C68.4458 39.0843 67.8561 39.4881 67.8852 39.95C67.8836 40.0107 67.8926 40.0713 67.9119 40.1289C68.0254 40.3545 68.2219 40.5277 68.4604 40.6125C68.8345 40.8245 69.2643 40.9189 69.6932 40.8833C69.854 40.8543 70.0094 40.8014 70.1543 40.7261C69.9844 41.1154 69.8097 41.4999 69.6325 41.865C69.6058 41.923 69.5767 41.981 69.5476 42.0391C69.5476 42.0391 68.0478 41.0404 67.196 43.0764C66.9473 43.4994 66.7695 43.96 66.6694 44.4401C66.6267 44.6321 66.5666 44.8198 66.4898 45.001C66.1116 45.6389 65.5456 46.1454 64.8686 46.4518C63.131 47.2449 56.1126 55.9664 55.9888 58.2247C55.9281 59.1063 55.7785 59.9795 55.5423 60.8312C54.9898 62.837 54.8478 64.933 55.1248 66.9946C55.2116 67.6608 55.3553 68.3185 55.5544 68.9604C56.2994 71.2163 56.7969 75.4259 56.7969 75.4259L57.6027 82.7329C57.5727 83.7414 57.6165 84.7508 57.7337 85.7529C56.911 86.6887 53.6081 90.5888 54.87 91.6503C55.8408 92.4869 57.5396 92.349 58.4933 92.1774C57.69 94.1577 56.4256 97.6008 56.2582 99.9655C56.0155 103.464 56.6732 108.099 57.7143 109.879C58.7554 111.659 62.2258 116.224 62.2258 116.224C62.2258 116.224 62.0632 122.486 63.3033 124.761C64.5434 127.037 65.0434 131.757 65.0434 131.757C65.0434 131.757 66.201 135.741 65.621 137.207C65.0409 138.672 66.6961 139.89 64.9584 140.865C63.2208 141.839 60.9978 163.801 60.9978 163.801C60.9978 163.801 60.1023 178.195 60.9978 178.928C61.0457 178.963 61.0969 178.993 61.1507 179.018V183.853C61.1507 183.853 60.5294 184.869 63.0558 185.074C64.7861 185.212 69.6908 185.524 72.6006 185.706L74.8551 185.846C74.8551 185.846 80.1942 186.905 82.5531 185.846C84.912 184.787 89.0934 184.811 88.4722 182.013C88.3898 181.633 88.2795 181.258 88.1421 180.894C87.4602 179.158 86.3026 178.959 84.1694 178.476C84.0456 178.449 83.9267 178.425 83.8175 178.406C81.5702 178.016 80.8325 179.059 79.5729 177.702C78.4784 176.529 74.9935 175.217 73.8067 174.801C73.8359 174.714 73.8722 174.629 73.9014 174.54C73.5653 174.483 73.2528 174.331 73.001 174.102L76.2166 174.305L78.1314 174.423C78.1314 174.423 82.6696 175.325 84.6839 174.423C86.6981 173.522 90.2413 173.546 89.7123 171.169C89.6426 170.845 89.5493 170.527 89.4332 170.216C88.8532 168.741 87.8679 168.579 86.055 168.171C85.9507 168.149 85.8536 168.127 85.7565 168.11C83.8466 167.779 83.2205 168.664 82.1502 167.513C81.2329 166.531 78.3377 165.431 77.2965 165.056C77.2965 164.52 76.5685 163.756 76.1098 162.989C75.571 162.094 76.5661 158.963 76.5661 158.963L77.1339 145.972C77.3502 145.876 77.5789 145.811 77.8135 145.778C77.8135 145.778 80.3811 143.336 79.801 140.734C79.6829 139.947 79.6212 139.153 79.6166 138.358C80.4611 137.577 81.6236 136.423 81.9537 135.712C82.4924 134.554 81.9537 128.942 81.9537 128.942V107.483L86.2492 107.916L90.1467 108.315L91.3334 108.436L95.231 108.827L104.188 109.729L112.26 108.206L115.752 107.548L122.933 106.194V88.6883L130.367 87.4648ZM71.2464 29.4561L70.7465 29.4029C70.9115 29.4102 71.0862 29.4416 71.2464 29.4561Z" fill="url(#paint0_linear_54904_124274)"/>
    <path d="M112.94 98.8344C110.513 102.294 101.788 100.462 101.788 100.462L95.0273 94.1581L94.1172 93.3046L95.6437 90.0742C95.6437 90.0742 96.129 90.2072 96.9615 90.4442C101.332 91.7087 114.988 95.9256 112.94 98.8344Z" fill="#EFB7B9"/>
    <path opacity="0.1" d="M96.9566 90.4442C96.6581 91.479 95.8402 93.0289 95.0272 94.1581L94.1172 93.3046L95.6437 90.0742C95.6437 90.0742 96.1339 90.2072 96.9566 90.4442Z" fill="black"/>
    <path d="M73.7732 54.0157C73.7732 54.0157 67.5411 56.7697 67.8468 63.5327C68.0669 67.8897 68.5433 72.2301 69.2738 76.5315C69.2738 76.5315 67.9997 86.7086 73.3048 89.332C78.6099 91.9555 83.5194 94.1123 83.5194 94.1123C83.5194 94.1123 91.8192 95.0021 92.8506 95.3696C93.8821 95.7372 97.1049 90.1179 96.5103 89.2426C95.9158 88.3673 88.2979 86.5321 87.3271 85.0716C86.3564 83.6112 84.1116 82.7093 84.1116 82.7093C84.1116 82.7093 81.7939 81.3117 81.6362 80.0496C81.4784 78.7874 82.09 77.8468 82.2453 77.2931C82.4006 76.7394 82.7938 71.3934 82.7938 71.3934C82.7938 71.3934 85.4099 52.3642 73.7732 54.0157Z" fill="#DCE6F2"/>
    <path opacity="0.1" d="M77.888 76.2539C77.888 76.2539 69.3382 77.6805 70.1658 80.6618C70.1658 80.6618 73.2697 77.4435 77.888 76.2539Z" fill="black"/>
    <path opacity="0.1" d="M77.9472 77.457C77.9472 77.457 73.2464 81.2798 74.1662 81.4756C75.0859 81.6715 77.9472 77.457 77.9472 77.457Z" fill="black"/>
    <path opacity="0.1" d="M80.2135 78.7891C80.2135 78.7891 78.954 81.3593 79.7282 81.1852C80.5023 81.0111 80.2135 78.7891 80.2135 78.7891Z" fill="black"/>
    <path opacity="0.1" d="M97.2765 90.7162L96.7571 90.5687C96.9052 90.0852 96.9464 89.6935 96.8251 89.5121C96.2305 88.6368 88.6175 86.804 87.6492 85.3412C86.6809 83.8783 84.4336 82.9788 84.4336 82.9788C84.4336 82.9788 82.116 81.5813 81.9582 80.3191C81.8005 79.0569 82.4121 78.1164 82.5674 77.5627C82.7227 77.009 83.1158 71.6605 83.1158 71.6605C83.1158 71.6605 85.7247 52.6337 74.088 54.2852C74.088 54.2852 67.8558 57.0416 68.1592 63.8046C68.3793 68.1617 68.8566 72.5022 69.5886 76.8034C69.5886 76.8034 68.3145 86.9805 73.6196 89.604C78.9247 92.2274 83.8342 94.3843 83.8342 94.3843C83.8342 94.3843 92.1316 95.2716 93.1654 95.6416C93.5561 95.7818 94.2623 95.0589 94.954 94.0651L95.3471 94.4302L102.108 100.731C102.108 100.731 110.833 102.567 113.26 99.1065C115.31 96.1953 101.657 91.9784 97.2765 90.7162Z" fill="black"/>
    <path d="M70.1875 28.6289C69.9499 28.6752 69.7224 28.7628 69.5153 28.8876C69.2726 29.0883 69.2726 29.4317 69.2119 29.7315C69.1407 30.1486 68.9746 30.5439 68.7266 30.8873C69.0027 30.9074 69.2797 30.8619 69.5347 30.7543C69.4932 31.0852 69.4117 31.41 69.292 31.7214C69.4432 31.7253 69.5923 31.6856 69.7215 31.6071C69.8506 31.5286 69.9543 31.4147 70.0201 31.279C70.1485 31.0065 70.2501 30.7223 70.3234 30.4303C70.3462 30.3429 70.3858 30.2608 70.4399 30.1885C70.6632 29.9249 71.0782 30.0434 71.4228 30.0773C71.7096 30.1013 71.9976 30.0486 72.2571 29.9244C72.5165 29.8003 72.7379 29.6093 72.8983 29.3712C73.2648 28.8175 73.2866 27.4006 72.4129 27.2507C71.5005 27.1008 70.9326 28.3533 70.1875 28.6289Z" fill="#965D7B"/>
    <g opacity="0.1">
      <path opacity="0.1" d="M69.485 29.1884C69.5069 29.0699 69.5214 28.9466 69.5481 28.8281C69.3176 29.0288 69.3054 29.3697 69.2447 29.672C69.2142 29.8464 69.1662 30.0173 69.1016 30.1822C69.2927 29.8787 69.4229 29.5412 69.485 29.1884Z" fill="black"/>
      <path opacity="0.1" d="M69.5635 31.1859C69.6844 30.8748 69.7659 30.5499 69.8062 30.2188C69.5632 30.3207 69.3001 30.3661 69.0369 30.3517C68.9603 30.5218 68.8668 30.6838 68.7578 30.8353C69.033 30.8565 69.3093 30.8118 69.5635 30.7048C69.5232 31.0359 69.4417 31.3608 69.3208 31.6719C69.472 31.6755 69.621 31.6356 69.7501 31.5572C69.8791 31.4787 69.9829 31.365 70.0489 31.2294C70.1094 31.1195 70.1582 31.0037 70.1945 30.8837C70.1233 30.9828 70.0282 31.0625 69.9179 31.1153C69.8076 31.1682 69.6857 31.1924 69.5635 31.1859Z" fill="black"/>
      <path opacity="0.1" d="M71.6913 29.5416C71.3467 29.5078 70.9293 29.3893 70.706 29.6528C70.6528 29.7258 70.6134 29.8077 70.5895 29.8946C70.5677 29.9575 70.5482 30.0228 70.5312 30.0881C70.7618 29.9067 71.1355 30.0034 71.4486 30.0349C71.7353 30.0582 72.0231 30.0051 72.2824 29.881C72.5417 29.7569 72.7632 29.5664 72.9241 29.3288C72.9977 29.2114 73.0525 29.0834 73.0867 28.9492C72.9205 29.1542 72.7064 29.3154 72.4631 29.4186C72.2198 29.5219 71.9548 29.5641 71.6913 29.5416Z" fill="black"/>
    </g>
    <path d="M77.4891 48.6016L81.19 53.0361L80.7071 57.5117L76.2344 50.5359L77.4891 48.6016Z" fill="#DCE6F2"/>
    <path opacity="0.1" d="M81.1876 53.0361L80.7338 57.2457L80.7046 57.5117L76.6688 51.2153L76.2344 50.5359L76.3606 50.3401L77.4866 48.6016L77.7366 48.9014L81.1876 53.0361Z" fill="black"/>
    <path d="M83.1118 42.5984C81.8595 42.9562 80.6631 44.1845 79.622 45.6764C78.9183 46.7057 78.2889 47.7836 77.7387 48.9019C77.3965 49.5838 77.0956 50.239 76.8457 50.8097L76.6709 51.2159C76.2487 52.2097 76.0132 52.8746 76.0132 52.8746C76.0132 52.8746 66.4272 45.6933 67.944 45.2097C68.4536 45.0477 69.1234 43.9597 69.786 42.5887L69.8685 42.4146C70.2883 41.5345 70.7009 40.5528 71.0673 39.6291C71.8172 37.7311 72.373 36.082 72.373 36.082C72.373 36.082 86.9341 41.5103 83.1118 42.5984Z" fill="#EFB7B9"/>
    <path d="M88.8438 35.6758C88.8438 35.6758 91.057 39.6654 94.0299 39.1213C97.0028 38.5773 95.7797 36.979 95.7797 36.979L88.8438 35.6758Z" fill="#0B4B66"/>
    <path d="M84.5541 173.779C82.5932 174.671 78.1594 173.779 78.1594 173.779L76.2907 173.663C73.8639 173.508 69.8013 173.247 68.3646 173.131C66.2678 172.959 66.7823 172.103 66.7823 172.103V166.931L76.9557 164.363C76.9557 164.363 80.977 165.734 82.0788 166.931C83.1247 168.072 83.7363 167.195 85.6025 167.524C85.6948 167.54 85.7918 167.56 85.8938 167.584C87.6653 167.988 88.6264 168.147 89.1943 169.61C89.3084 169.918 89.4 170.233 89.4685 170.553C89.9927 172.908 86.5126 172.891 84.5541 173.779Z" fill="#A36468"/>
    <path opacity="0.1" d="M89.1943 169.61C88.8297 169.837 88.4465 170.033 88.0488 170.195C86.714 170.802 85.4448 171.542 84.0955 172.115C82.7461 172.688 81.2924 173.097 79.8315 172.988C79.067 172.932 78.2856 172.746 77.5551 172.964C77.1033 173.138 76.6779 173.373 76.2907 173.663C73.8639 173.508 69.8013 173.247 68.3646 173.131C66.2678 172.959 66.7823 172.103 66.7823 172.103V171.499C66.8575 171.499 66.9425 171.477 67.0396 171.47C67.5418 171.462 68.0419 171.536 68.5199 171.69C69.5732 171.975 70.6216 172.255 71.6748 172.536C71.7615 172.21 71.9137 171.905 72.1223 171.64C72.3309 171.375 72.5915 171.155 72.8883 170.993C73.4894 170.675 74.1642 170.521 74.8443 170.546C76.4776 170.568 78.0235 171.339 79.6543 171.416C80.1103 171.458 80.5693 171.381 80.9867 171.194C81.2099 171.083 81.4065 170.921 81.6249 170.797C81.9745 170.629 82.3438 170.505 82.7243 170.427C83.7937 170.162 84.8438 169.824 85.8671 169.417C86.1583 169.303 86.498 169.098 86.4592 168.788C86.4082 168.377 85.7603 168.329 85.5904 167.951C85.5604 167.883 85.5466 167.809 85.5499 167.735C85.5533 167.661 85.5738 167.588 85.6098 167.523C85.702 167.54 85.7991 167.56 85.901 167.584C87.6654 167.988 88.6264 168.147 89.1943 169.61Z" fill="black"/>
    <path d="M82.481 185.093C80.1755 186.142 74.9578 185.093 74.9578 185.093L72.7615 184.965C69.9172 184.784 65.1266 184.481 63.4351 184.339C60.967 184.136 61.5737 183.13 61.5737 183.13V177.034L73.5454 174.012C73.5454 174.012 78.2777 175.624 79.5737 177.034C80.8041 178.376 81.5151 177.344 83.7211 177.731C83.8304 177.75 83.9444 177.774 84.0633 177.801C86.148 178.284 87.2789 178.466 87.9463 180.187C88.0814 180.549 88.1893 180.92 88.2691 181.297C88.8709 184.068 84.7865 184.046 82.481 185.093Z" fill="#A36468"/>
    <path opacity="0.1" d="M87.9414 180.187C87.5126 180.454 87.0621 180.684 86.5945 180.876C85.0244 181.589 83.5294 182.46 81.9423 183.134C80.3551 183.809 78.6442 184.288 76.9235 184.162C76.0256 184.097 75.1058 183.872 74.254 184.133C73.7203 184.34 73.218 184.62 72.7615 184.965C69.9172 184.783 65.1266 184.481 63.4351 184.338C60.967 184.135 61.5737 183.129 61.5737 183.129V182.418C61.6742 182.402 61.7755 182.391 61.8771 182.385C62.4683 182.374 63.0572 182.461 63.6196 182.643L67.3302 183.64C67.4336 183.255 67.6145 182.896 67.8619 182.584C68.1094 182.272 68.4181 182.013 68.7693 181.824C69.4767 181.448 70.2714 181.266 71.0724 181.297C72.9945 181.323 74.8122 182.23 76.7318 182.322C77.2664 182.37 77.8046 182.281 78.2947 182.063C78.5592 181.93 78.7801 181.739 79.047 181.596C79.4575 181.396 79.8923 181.25 80.3405 181.161C81.5921 180.847 82.8212 180.449 84.0196 179.972C84.3618 179.836 84.7623 179.594 84.7162 179.232C84.6555 178.748 83.8934 178.69 83.692 178.245C83.6581 178.165 83.6426 178.078 83.6468 177.991C83.651 177.904 83.6748 177.819 83.7163 177.742C83.8255 177.762 83.9396 177.786 84.0585 177.812C86.1431 178.277 87.274 178.465 87.9414 180.187Z" fill="black"/>
    <path d="M77.2653 143.266L76.6173 158.458C76.6173 158.458 75.6466 161.56 76.1732 162.447C76.6998 163.334 77.588 164.219 77.2653 164.744C76.9425 165.269 73.0595 170.941 71.8049 168.765C70.5502 166.589 69.3125 157.159 69.3125 157.159L70.4701 145.512L77.2653 143.266Z" fill="#0B4B66"/>
    <path d="M80.0778 105.414L81.8785 107.813V128.675C81.8785 128.675 82.4051 134.236 81.8785 135.384C81.3519 136.533 78.6823 138.83 78.6823 138.83L76.4375 127.345L76.9229 115.195L80.0778 105.414Z" fill="#0B4B66"/>
    <path opacity="0.1" d="M77.2653 143.266L76.6173 158.458C76.6173 158.458 75.6466 161.56 76.1732 162.447C76.6998 163.334 77.588 164.219 77.2653 164.744C76.9425 165.269 73.0595 170.941 71.8049 168.765C70.5502 166.589 69.3125 157.159 69.3125 157.159L70.4701 145.512L77.2653 143.266Z" fill="black"/>
    <path opacity="0.1" d="M80.0778 105.414L81.8785 107.813V128.675C81.8785 128.675 82.4051 134.236 81.8785 135.384C81.3519 136.533 78.6823 138.83 78.6823 138.83L76.4375 127.345L76.9229 115.195L80.0778 105.414Z" fill="black"/>
    <path d="M81.8799 96.5179V107.802L79.8584 116.587C79.8584 116.587 79.2104 137.785 79.7758 140.362C80.3413 142.94 77.8344 145.36 77.8344 145.36C77.8344 145.36 76.3783 145.522 76.3783 146.649C76.3783 147.776 73.9514 151.001 73.9514 151.001L74.0315 157.288C74.0315 157.288 75.0848 169.056 73.466 171.312C71.8473 173.568 74.0315 173.892 74.0315 173.892C72.0099 180.5 62.3025 178.97 61.4265 178.244C60.5504 177.519 61.4265 163.253 61.4265 163.253C61.4265 163.253 63.5961 141.492 65.2949 140.524C66.9936 139.557 65.3774 138.348 65.9428 136.897C66.5083 135.447 65.3774 131.498 65.3774 131.498C65.3774 131.498 64.892 126.822 63.6786 124.566C62.4651 122.31 62.6253 116.103 62.6253 116.103C62.6253 116.103 59.2277 111.589 58.2182 109.817C57.2086 108.044 56.5582 103.45 56.8009 99.9828C56.9659 97.6398 58.2012 94.2281 58.9851 92.2647C59.3612 91.3242 59.633 90.7148 59.633 90.7148L59.8636 90.7753L73.119 94.2329L81.8799 96.5179Z" fill="#0B4B66"/>
    <path opacity="0.1" d="M83.1094 42.5958C81.8571 42.9536 80.6607 44.1819 79.6196 45.6738H79.3478C77.8217 45.6749 76.3224 45.2746 75.0014 44.5133C73.6805 43.7521 72.5846 42.6569 71.8245 41.3384C71.5069 40.7921 71.2513 40.2123 71.0625 39.6096C71.8124 37.7115 72.3681 36.0625 72.3681 36.0625C72.3681 36.0625 86.9317 41.5077 83.1094 42.5958Z" fill="black"/>
    <path d="M88.0238 36.553C88.026 37.876 87.7233 39.1818 87.1391 40.3699C86.5549 41.558 85.7048 42.5966 84.6542 43.4058C83.6037 44.215 82.3807 44.7731 81.0796 45.0371C79.7784 45.3012 78.4338 45.2642 77.1493 44.9289C75.8647 44.5937 74.6746 43.9691 73.6705 43.1034C72.6664 42.2376 71.8751 41.1538 71.3577 39.9354C70.8403 38.717 70.6104 37.3965 70.6859 36.0756C70.7614 34.7548 71.1402 33.4688 71.7931 32.3168C72.0561 31.8487 72.3632 31.4066 72.7104 30.9966C73.2827 30.3173 73.9554 29.7286 74.7053 29.2508C75.972 28.4488 77.4258 27.9879 78.9248 27.9132C80.4237 27.8384 81.9165 28.1523 83.2572 28.8242C84.598 29.4962 85.7409 30.5031 86.5742 31.7468C87.4075 32.9904 87.9028 34.4281 88.0117 35.9195C88.0165 36.1323 88.0238 36.3426 88.0238 36.553Z" fill="#EFB7B9"/>
    <path opacity="0.1" d="M80.7359 57.2457L80.7068 57.5117L76.6709 51.225C76.2487 52.2188 76.0133 52.8837 76.0133 52.8837C76.0133 52.8837 66.4272 45.6928 67.944 45.2092C68.4536 45.0472 69.1234 43.9591 69.786 42.5882L69.8685 42.4141C70.5723 44.5032 74.6615 48.6789 76.3627 50.3521C76.5593 50.5456 76.7219 50.7052 76.8481 50.8212L77.1078 51.063L77.2437 51.1984C77.8625 51.8343 80.4738 54.6391 80.7359 57.2457Z" fill="black"/>
    <path d="M83.7483 78.5767L83.3066 92.7385L83.2289 95.2604C83.2289 95.2604 77.9967 94.7768 73.1138 94.2449C69.1823 93.8169 65.4765 93.3551 64.9062 93.0843C64.1782 92.7433 62.6177 92.4798 61.3873 92.3129C60.436 92.1848 59.6885 92.1171 59.6885 92.1171C59.6885 92.1171 59.4094 92.1993 58.9799 92.2767C58.0431 92.4459 56.3977 92.5838 55.4391 91.7544C54.2135 90.6929 57.434 86.8363 58.2373 85.9102L58.4144 85.7096L58.1111 82.9169L57.3223 75.6751C57.3223 75.6751 56.837 71.5042 56.1089 69.2676C55.9143 68.6317 55.7738 67.9806 55.6891 67.3212C55.4185 65.2784 55.5571 63.2025 56.0968 61.2135C56.3273 60.3683 56.4737 59.5025 56.5336 58.6287C56.6549 56.3921 63.5108 47.748 65.2096 46.9621C65.9738 46.6071 66.5887 45.9961 66.9472 45.2357C67.0656 44.9966 67.1544 44.7441 67.2117 44.4838C67.9398 41.3404 69.7818 42.5881 69.7818 42.5881C70.2259 45.0471 77.1012 51.5562 77.1012 51.5562L77.2371 51.6916C77.919 52.388 80.9574 55.657 80.7414 58.4473C80.6983 59.4859 80.8539 60.5231 81.2001 61.5036C82.5986 65.8909 83.4025 70.4446 83.5905 75.0441L83.7483 78.5767Z" fill="#DCE6F2"/>
    <path opacity="0.1" d="M74.0073 61.7578C74.0073 61.7578 72.3085 65.8683 71.0344 66.5332C69.7603 67.1982 74.614 67.9357 74.0073 61.7578Z" fill="black"/>
    <path opacity="0.1" d="M75.2814 69.4375C75.2814 69.4375 71.3984 69.9211 71.3984 70.6465C71.3984 71.3718 75.2814 69.4375 75.2814 69.4375Z" fill="black"/>
    <path opacity="0.1" d="M79.3467 74.1523C79.3467 74.1523 73.7043 86.1211 72.1268 86.4838C70.5494 86.8465 79.3467 74.1523 79.3467 74.1523Z" fill="black"/>
    <path opacity="0.1" d="M76.9949 52.1604L72.328 54.1818L66.6953 45.7045C66.8137 45.4654 66.9025 45.2129 66.9598 44.9525C67.6879 41.8092 69.5299 43.0568 69.5299 43.0568C69.974 45.5159 76.8492 52.025 76.8492 52.025L76.9949 52.1604Z" fill="black"/>
    <path d="M77.237 51.6799L72.5702 53.7013L66.9375 45.224C67.0559 44.9849 67.1447 44.7324 67.202 44.472C67.9301 41.3287 69.7721 42.5764 69.7721 42.5764C70.2162 45.0354 77.0914 51.5445 77.0914 51.5445L77.237 51.6799Z" fill="#DCE6F2"/>
    <path opacity="0.1" d="M83.2307 95.2599C83.2307 95.2599 77.9984 94.7763 73.1156 94.2444L81.8765 96.5293V99.1891C81.4931 99.5348 81.1606 99.7138 80.9446 99.6219C79.935 99.1987 71.6959 97.8689 71.6959 97.8689C71.6959 97.8689 66.9101 95.4509 61.7458 92.5494C61.6204 92.4802 61.4989 92.4044 61.3818 92.3221C60.7796 91.9148 60.2607 91.397 59.8529 90.7964C58.8991 89.4206 58.4332 87.6531 58.2317 85.9194C58.1185 84.9259 58.0763 83.9255 58.1055 82.926C58.1305 81.7927 58.2343 80.6624 58.4162 79.5433C57.9167 75.209 57.6736 70.8492 57.6881 66.4865C57.7488 59.7163 64.1193 57.2983 64.1193 57.2983C75.8288 56.2707 72.1982 75.1306 72.1982 75.1306C72.1982 75.1306 71.5211 80.4501 71.3367 80.9941C71.1523 81.5381 70.4897 82.4449 70.5795 83.7143C70.6693 84.9837 72.9069 86.5022 72.9069 86.5022C72.9069 86.5022 75.091 87.5225 75.9914 89.0337C76.6467 90.1484 80.9033 91.6596 83.3084 92.738L83.2307 95.2599Z" fill="black"/>
    <path opacity="0.1" d="M87.1541 31.1852C87.1586 31.5835 87.0758 31.9779 86.9114 32.341C86.787 32.6373 86.6427 32.9249 86.4795 33.2018C86.224 33.7112 85.8615 34.1598 85.4165 34.5172C84.8559 34.9161 84.1473 35.0273 83.475 35.1893C82.8028 35.3513 82.1039 35.6101 81.7204 36.1807C81.5126 36.5475 81.3736 36.949 81.3103 37.3655C81.246 37.7816 81.0792 38.1754 80.8249 38.5116C80.6925 38.6757 80.5091 38.7914 80.3035 38.8404C80.0979 38.8894 79.8818 38.869 79.6892 38.7824C79.4862 38.6461 79.3323 38.4487 79.2499 38.219C78.9732 37.5976 78.9028 36.9085 78.7912 36.2387C78.6796 35.569 78.5218 34.8798 78.1093 34.3406C77.6967 33.8014 76.9662 33.446 76.3183 33.6564C76.1014 33.7396 75.9036 33.8655 75.7368 34.0267C75.57 34.188 75.4376 34.3811 75.3475 34.5945C75.1682 35.0218 75.045 35.4705 74.9811 35.9292C74.6801 37.5702 74.325 39.2015 73.9157 40.8231C73.9032 40.8896 73.8758 40.9524 73.8356 41.0069C73.7711 41.071 73.684 41.1074 73.5929 41.1084C73.0493 41.181 72.5275 40.8014 71.9791 40.8425C71.9225 40.8462 71.8665 40.8551 71.8116 40.8691C70.9248 39.3336 70.5333 37.5636 70.69 35.799C70.8467 34.0344 71.5441 32.3604 72.6877 31.0039L72.7314 30.9918C73.0962 30.8628 73.4278 30.6546 73.7021 30.3825C74.0524 30.0332 74.3769 29.659 74.6729 29.263L74.867 29.0212C75.4248 28.3516 76.0602 27.7502 76.7599 27.2295C76.9509 27.0736 77.17 26.9554 77.4055 26.8813C77.607 26.8422 77.8135 26.8357 78.0171 26.862C78.8552 26.9622 79.7001 26.9938 80.5434 26.9563C81.131 26.8642 81.7232 26.8045 82.3174 26.7773C83.8536 26.8209 85.1641 27.9017 86.1349 29.0865C86.6566 29.6934 87.1226 30.3922 87.1541 31.1852Z" fill="black"/>
    <path d="M70.6602 32.5467C70.3229 33.098 69.7137 33.4728 69.4856 34.0773C69.1507 34.955 69.7162 36.0479 69.1968 36.8313C69.0245 37.0948 68.7406 37.2907 68.6435 37.5929C68.4785 38.1031 68.9299 38.6472 68.8134 39.1718C68.6969 39.6965 68.0028 40.139 68.1872 40.6516C68.2962 40.8752 68.4874 41.0483 68.7211 41.1352C69.0889 41.3454 69.5121 41.439 69.9346 41.4036C70.5971 41.2948 71.0897 40.6468 71.762 40.5984C72.308 40.5597 72.8298 40.9369 73.3734 40.8668C73.4645 40.8637 73.5511 40.8266 73.6161 40.7628C73.6573 40.709 73.6848 40.6459 73.6962 40.5791C74.1039 38.9591 74.4598 37.3278 74.764 35.6852C74.826 35.2263 74.9484 34.7775 75.128 34.3505C75.2188 34.1375 75.3514 33.9447 75.5182 33.7836C75.6849 33.6225 75.8823 33.4962 76.0988 33.4123C76.7467 33.2044 77.4748 33.5574 77.8898 34.0966C78.3048 34.6358 78.4625 35.3249 78.5741 35.9947C78.6858 36.6644 78.7562 37.3536 79.0304 37.975C79.1137 38.2054 79.2684 38.4036 79.4721 38.5408C79.8361 38.7511 80.3263 38.5843 80.6054 38.27C80.8611 37.9336 81.028 37.5387 81.0908 37.1214C81.1541 36.7057 81.2931 36.305 81.5009 35.9391C81.8844 35.3684 82.5857 35.1097 83.2555 34.9477C83.9253 34.7857 84.6316 34.6721 85.197 34.2731C85.6414 33.9162 86.0039 33.4685 86.26 32.9602C86.6191 32.3363 86.9541 31.6593 86.9249 30.9412C86.8934 30.1578 86.4274 29.459 85.9299 28.8497C84.9592 27.6649 83.6463 26.5841 82.1101 26.543C81.5157 26.5677 80.9233 26.6275 80.336 26.7219C79.4927 26.7597 78.6476 26.7273 77.8097 26.6252C77.6059 26.6009 77.3996 26.6082 77.1981 26.6469C76.9624 26.7187 76.7437 26.8371 76.555 26.9951C75.8546 27.515 75.2184 28.1156 74.6596 28.7844C74.2994 29.2603 73.9086 29.7126 73.4899 30.1384C73.2154 30.411 72.884 30.6199 72.5192 30.7502C72.2765 30.8179 72.0338 30.7695 71.8032 30.8445C71.0873 31.0693 70.9927 32.0002 70.6602 32.5467Z" fill="#965D7B"/>
    <path opacity="0.1" d="M94.0299 39.1189C92.0884 39.4744 90.4794 37.91 89.5888 36.7687C89.3152 36.4221 89.0663 36.0569 88.8438 35.6758L95.5079 36.9283L95.7772 36.9791C95.7772 36.9791 97.0028 38.5773 94.0299 39.1189Z" fill="black"/>
    <g opacity="0.1">
      <path opacity="0.1" d="M68.8084 38.4793C68.8355 38.163 68.7873 37.8449 68.6676 37.5508C68.6676 37.575 68.6458 37.5991 68.6385 37.6233C68.5341 37.9473 68.6749 38.2834 68.7647 38.6195C68.784 38.5744 68.7986 38.5274 68.8084 38.4793Z" fill="black"/>
      <path opacity="0.1" d="M69.3899 34.5195C69.3649 34.8539 69.3714 35.1898 69.4093 35.523C69.4342 35.1886 69.4277 34.8527 69.3899 34.5195Z" fill="black"/>
      <path opacity="0.1" d="M86.2416 32.2588C85.9862 32.7682 85.6237 33.2168 85.1787 33.5741C84.6181 33.9731 83.9118 34.0843 83.2372 34.2463C82.5625 34.4083 81.866 34.6671 81.4826 35.2377C81.2751 35.6047 81.1361 36.0061 81.0724 36.4225C81.0092 36.8396 80.8424 37.2344 80.5871 37.571C80.308 37.8853 79.8177 38.0546 79.4537 37.8418C79.25 37.7046 79.0954 37.5065 79.012 37.276C78.7378 36.6546 78.665 35.9679 78.5558 35.2957C78.4466 34.6235 78.284 33.9368 77.8714 33.3976C77.4588 32.8584 76.7284 32.503 76.0804 32.7134C75.8637 32.7969 75.6661 32.923 75.4994 33.0842C75.3326 33.2454 75.2001 33.4383 75.1097 33.6515C74.93 34.0786 74.8076 34.5273 74.7456 34.9862C74.4431 36.6288 74.0871 38.2601 73.6778 39.8801C73.6665 39.9469 73.639 40.01 73.5977 40.0639C73.5328 40.1276 73.4462 40.1647 73.355 40.1679C72.8114 40.238 72.2897 39.8608 71.7436 39.8995C71.0714 39.9478 70.5787 40.5958 69.9162 40.7022C69.4936 40.74 69.0696 40.6462 68.7028 40.4338C68.5341 40.3615 68.3827 40.2544 68.2587 40.1195C68.2019 40.2005 68.1643 40.2933 68.1487 40.3909C68.1332 40.4885 68.1401 40.5883 68.1689 40.6829C68.2758 40.908 68.4677 41.0818 68.7028 41.1665C69.0696 41.3788 69.4936 41.4726 69.9162 41.4348C70.5787 41.3285 71.0714 40.6805 71.7436 40.6321C72.2897 40.5934 72.8114 40.9706 73.355 40.9005C73.4462 40.8973 73.5328 40.8602 73.5977 40.7965C73.639 40.7426 73.6665 40.6796 73.6778 40.6128C74.0855 39.0008 74.4415 37.3695 74.7456 35.7188C74.8076 35.26 74.93 34.8112 75.1097 34.3842C75.2001 34.1709 75.3326 33.978 75.4994 33.8168C75.6661 33.6557 75.8637 33.5295 76.0804 33.446C76.7284 33.2356 77.4564 33.5911 77.8714 34.1303C78.2864 34.6695 78.4441 35.3586 78.5558 36.0283C78.6674 36.6981 78.7378 37.3872 79.012 38.0086C79.0954 38.2391 79.25 38.4372 79.4537 38.5744C79.8177 38.7848 80.308 38.618 80.5871 38.3036C80.8424 37.9671 81.0092 37.5723 81.0724 37.1551C81.1361 36.7387 81.2751 36.3373 81.4826 35.9703C81.866 35.3997 82.5674 35.1434 83.2372 34.979C83.907 34.8145 84.6132 34.7057 85.1787 34.3068C85.6237 33.9495 85.9862 33.5008 86.2416 32.9914C86.6008 32.37 86.9357 31.693 86.9066 30.9749C86.9018 30.8825 86.8921 30.7905 86.8774 30.6992C86.7604 31.2526 86.545 31.7808 86.2416 32.2588Z" fill="black"/>
    </g>
    <path opacity="0.1" d="M86.9229 32.3317C87.5452 33.4342 87.9141 34.6606 88.0028 35.9223C85.8405 34.7134 83.8068 33.3859 82.7803 32.9241C80.9917 32.1189 74.3033 32.2398 71.7891 32.3148C72.0521 31.8467 72.3592 31.4046 72.7064 30.9946C73.2809 30.3147 73.956 29.726 74.7086 29.2488C75.7051 28.6187 76.8202 28.1976 77.9857 28.0114C79.1511 27.8252 80.3424 27.8778 81.4867 28.1659C82.6311 28.454 83.7045 28.9716 84.6413 29.687C85.578 30.4024 86.3585 31.3007 86.935 32.3269L86.9229 32.3317Z" fill="black"/>
    <path opacity="0.1" d="M94.6366 38.0937C93.4693 38.4516 91.5642 37.76 89.5888 36.7687C89.3152 36.4221 89.0663 36.0569 88.8438 35.6758L95.5079 36.9283C95.9496 37.2281 96.0612 37.6561 94.6366 38.0937Z" fill="black"/>
    <path d="M79.8687 23.9485C79.8687 23.9485 73.4982 23.5858 71.7072 27.0313L71.4184 30.0852L70.933 30.032L70.8359 32.109C70.8359 32.109 80.5724 31.6859 82.7882 32.6821C85.0039 33.6782 91.8888 38.6979 94.6482 37.8516C97.4075 37.0053 94.4055 36.2195 94.4055 36.2195C94.4055 36.2195 90.6075 34.6164 90.6075 33.3591C90.6075 32.1018 89.6658 25.4597 79.8687 23.9485Z" fill="#0B4B66"/>
    <path opacity="0.1" d="M67.5781 137.156C67.5781 137.156 71.6431 141.085 73.4026 140.783C73.4026 140.783 68.4275 140.36 67.5781 137.156Z" fill="black"/>
    <path opacity="0.1" d="M66.7266 138.977C66.7266 138.977 67.0906 140.998 68.0613 140.8C69.0321 140.601 66.7266 138.977 66.7266 138.977Z" fill="black"/>
    <path opacity="0.1" d="M73.0959 172.762C73.0959 172.762 67.3249 177.235 68.2981 177.356C69.2712 177.477 73.0959 172.762 73.0959 172.762Z" fill="black"/>
    <path d="M80.8203 83.9828L99.507 80.9531V98.5799L81.7522 97.6538L80.8203 83.9828Z" fill="#F47738"/>
    <path opacity="0.05" d="M80.8203 83.9828L99.507 80.9531V98.5799L81.7522 97.6538L80.8203 83.9828Z" fill="black"/>
    <path d="M99.5078 80.9531L121.917 82.6239L120.677 97.9633L99.5078 98.5799V80.9531Z" fill="#F47738"/>
    <path opacity="0.1" d="M99.5078 80.9531L121.917 82.6239L120.677 97.9633L99.5078 98.5799V80.9531Z" fill="black"/>
    <path d="M106.398 75.5742L99.5078 80.9541L121.917 82.6249L125.579 77.1193L106.398 75.5742Z" fill="#F47738"/>
    <path d="M74.0547 78.1071L90.8776 76.0664L99.5075 80.9531L80.8207 83.9827L74.0547 78.1071Z" fill="#F47738"/>
    <path d="M103.604 85.528V109.628L94.8499 108.733L91.0422 108.346L89.8822 108.225L86.0769 107.836L80.8203 107.299V83.9805L99.5046 85.2475L103.604 85.528Z" fill="#F47738"/>
    <path d="M121.915 82.625V106.127L114.899 107.469L111.486 108.122L103.602 109.631V85.5314L121.915 82.625Z" fill="#F47738"/>
    <path opacity="0.05" d="M121.915 82.625V106.127L114.899 107.469L111.486 108.122L103.602 109.631V85.5314L121.915 82.625Z" fill="black"/>
    <path d="M74.0547 89.0533L80.8207 83.9805L103.604 85.528L100.25 91.1569L74.0547 89.0533Z" fill="#F47738"/>
    <path opacity="0.1" d="M74.0547 89.0533L80.8207 83.9805L103.604 85.528L100.25 91.1569L74.0547 89.0533Z" fill="white"/>
    <path d="M121.915 82.625L103.602 85.5314L109.562 90.8508L129.178 87.5721L121.915 82.625Z" fill="#F47738"/>
    <path opacity="0.1" d="M121.915 82.625L103.602 85.5314L109.562 90.8508L129.178 87.5721L121.915 82.625Z" fill="white"/>
    <path opacity="0.1" d="M114.897 107.469L111.484 108.122V103.1L114.681 102.297L114.897 107.469Z" fill="white"/>
    <path opacity="0.1" d="M94.8468 105.414V108.736L91.0391 108.349V105.414H94.8468Z" fill="white"/>
    <path opacity="0.1" d="M89.8834 106.461V108.228L86.0781 107.839V106.461H89.8834Z" fill="white"/>
    <path opacity="0.1" d="M101.308 103.648C98.6986 106.973 90.0833 104.676 90.0833 104.676L83.6813 98.0218L82.8125 97.1199L84.5113 93.9766C84.5113 93.9766 84.9967 94.1361 85.8072 94.4166C90.0979 95.9109 103.504 100.851 101.308 103.648Z" fill="black"/>
    <path d="M101.065 103.168C98.4565 106.492 89.8412 104.195 89.8412 104.195L83.4391 97.5413L82.5703 96.6394L84.2691 93.4961C84.2691 93.4961 84.7545 93.6557 85.565 93.9362C89.8557 95.4304 103.262 100.37 101.065 103.168Z" fill="#EFB7B9"/>
    <path opacity="0.1" d="M85.5572 93.9362C85.2029 94.9517 84.3025 96.4556 83.4313 97.5413L82.5625 96.6394L84.2613 93.4961C84.2613 93.4961 84.7491 93.6557 85.5572 93.9362Z" fill="black"/>
    <path d="M64.3614 56.3305C64.3614 56.3305 57.991 58.7484 57.9303 65.5187C57.9158 69.8814 58.1589 74.2412 58.6584 78.5755C58.6584 78.5755 56.8382 88.6704 61.9953 91.5719C67.1523 94.4734 71.9454 96.8914 71.9454 96.8914C71.9454 96.8914 80.1845 98.2212 81.1965 98.6444C82.2085 99.0675 85.725 93.6272 85.179 92.7204C84.6329 91.8137 77.1315 89.5771 76.2409 88.0659C75.3502 86.5547 73.1563 85.5368 73.1563 85.5368C73.1563 85.5368 70.9188 84.0159 70.829 82.7465C70.7392 81.477 71.3993 80.5703 71.5862 80.0263C71.773 79.4822 72.4501 74.1628 72.4501 74.1628C72.4501 74.1628 76.071 55.2908 64.3614 56.3305Z" fill="#DCE6F2"/>
    <path opacity="0.1" d="M67.2739 78.7461C67.2739 78.7461 58.6585 79.7133 59.3259 82.7357C59.3259 82.7357 62.5997 79.6867 67.2739 78.7461Z" fill="black"/>
    <path opacity="0.1" d="M67.2741 79.9531C67.2741 79.9531 62.384 83.5196 63.282 83.7614C64.1799 84.0032 67.2741 79.9531 67.2741 79.9531Z" fill="black"/>
    <path opacity="0.1" d="M69.4576 81.4062C69.4576 81.4062 68.0622 83.9064 68.8509 83.7758C69.6396 83.6453 69.4576 81.4062 69.4576 81.4062Z" fill="black"/>
    <path d="M159.162 27.176C159.162 27.176 149.94 26.6223 151.017 33.0685C151.017 33.0685 150.801 34.2073 151.838 34.7248C151.838 34.7248 151.855 34.2412 152.784 34.408C153.115 34.4635 153.451 34.4797 153.786 34.4564C154.24 34.4262 154.671 34.2487 155.014 33.951C155.014 33.951 157.609 32.8847 158.618 28.6582C158.618 28.6582 159.366 27.7345 159.346 27.4975L157.788 28.1625C157.788 28.1625 158.32 29.282 157.9 30.2129C157.9 30.2129 157.851 28.2036 157.55 28.2495C157.49 28.2495 156.742 28.6388 156.742 28.6388C156.742 28.6388 157.657 30.5877 156.965 32.007C156.965 32.007 157.228 29.6036 156.456 28.7791L155.359 29.4174C155.359 29.4174 156.429 31.4315 155.704 33.0757C155.704 33.0757 155.89 30.5538 155.128 29.5721L154.133 30.3435C154.133 30.3435 155.14 32.331 154.527 33.6947C154.527 33.6947 154.446 30.7593 153.917 30.5369C153.917 30.5369 153.049 31.301 152.917 31.6153C152.917 31.6153 153.604 33.0661 153.177 33.818C153.177 33.818 152.915 31.8619 152.692 31.8523C152.692 31.8523 151.825 33.1483 151.736 34.0284C151.778 33.2079 152.034 32.4126 152.481 31.7217C151.981 31.8158 151.521 32.0537 151.156 32.406C151.156 32.406 151.289 31.4896 152.694 31.4098C152.694 31.4098 153.422 30.4257 153.602 30.3652C153.602 30.3652 152.204 30.2492 151.357 30.6239C151.357 30.6239 152.102 29.7607 153.859 30.1404L154.83 29.3424C154.83 29.3424 152.99 29.1006 152.209 29.369C152.209 29.369 153.107 28.605 155.094 29.1611L156.162 28.5252C156.162 28.5252 154.594 28.1867 153.66 28.31C153.66 28.31 154.645 27.7804 156.475 28.3535L157.24 28.0126C157.24 28.0126 156.089 27.7877 155.754 27.7514C155.42 27.7152 155.4 27.6233 155.4 27.6233C156.128 27.5026 156.875 27.5863 157.558 27.8651C157.558 27.8651 159.196 27.2775 159.162 27.176Z" fill="#F47738"/>
    <path opacity="0.1" d="M187.177 59.4142C187.177 59.4142 177.955 58.8605 179.033 65.3068C179.033 65.3068 178.817 66.4456 179.853 66.963C179.853 66.963 179.87 66.4795 180.802 66.6463C181.133 66.7018 181.47 66.718 181.804 66.6946C182.253 66.6623 182.679 66.4858 183.018 66.1917C183.018 66.1917 185.614 65.123 186.624 60.8964C186.624 60.8964 187.369 59.9752 187.34 59.7382L185.782 60.4008C185.782 60.4008 186.313 61.5203 185.896 62.4512C185.896 62.4512 185.845 60.4419 185.547 60.4878C185.486 60.4878 184.736 60.8771 184.736 60.8771C184.736 60.8771 185.653 62.8284 184.962 64.2453C184.962 64.2453 185.224 61.8419 184.45 61.0173L183.365 61.6484C183.365 61.6484 184.435 63.6626 183.709 65.3068C183.709 65.3068 183.896 62.7849 183.134 61.8032L182.142 62.5769C182.142 62.5769 183.146 64.562 182.535 65.9257C182.535 65.9257 182.455 62.9904 181.926 62.7679C181.926 62.7679 181.057 63.532 180.923 63.8463C180.923 63.8463 181.613 65.2971 181.186 66.0491C181.186 66.0491 180.923 64.093 180.7 64.0833C180.7 64.0833 179.834 65.3793 179.744 66.2594C179.787 65.4388 180.045 64.6437 180.491 63.9527C179.991 64.0471 179.53 64.2849 179.164 64.637C179.164 64.637 179.3 63.7206 180.705 63.6408C180.705 63.6408 181.421 62.6567 181.613 62.5963C181.613 62.5963 180.215 62.4802 179.368 62.855C179.368 62.855 180.113 61.9918 181.867 62.3835L182.838 61.5855C182.838 61.5855 180.996 61.3438 180.217 61.6121C180.217 61.6121 181.115 60.8481 183.103 61.4042L184.171 60.7683C184.171 60.7683 182.6 60.4322 181.666 60.5531C181.666 60.5531 182.654 60.0236 184.484 60.5966L185.248 60.2557C185.248 60.2557 184.098 60.0308 183.76 59.9945C183.423 59.9583 183.406 59.8664 183.406 59.8664C184.135 59.7456 184.882 59.8294 185.566 60.1082C185.566 60.1082 187.207 59.5158 187.177 59.4142Z" fill="#F47738"/>
    <path opacity="0.1" d="M131.154 53.6935C131.154 53.6935 133.277 44.7254 126.715 44.6939C126.715 44.6939 125.625 44.2877 124.939 45.2162C124.939 45.2162 125.407 45.3153 125.089 46.2003C124.979 46.5132 124.906 46.8378 124.871 47.1675C124.824 47.6169 124.925 48.0694 125.159 48.4562C125.159 48.4562 125.773 51.1885 129.77 52.9004C129.77 52.9004 130.557 53.7902 130.795 53.7999L130.406 52.1581C130.406 52.1581 129.207 52.4894 128.358 51.9163C128.358 51.9163 130.355 52.2089 130.358 51.9163C130.358 51.8559 130.115 51.0555 130.115 51.0555C130.115 51.0555 128.03 51.6213 126.744 50.7001C126.744 50.7001 129.076 51.3674 130.025 50.7509L129.588 49.5612C129.588 49.5612 127.404 50.2697 125.909 49.2759C125.909 49.2759 128.373 49.8901 129.474 49.3098L128.88 48.2024C128.88 48.2024 126.744 48.8504 125.499 48.0162C125.499 48.0162 128.411 48.4369 128.727 47.9581C128.727 47.9581 128.12 46.974 127.831 46.7903C127.831 46.7903 126.288 47.2207 125.608 46.6718C125.608 46.6718 127.586 46.7468 127.632 46.5388C127.632 46.5388 126.499 45.4677 125.635 45.2259C126.44 45.4085 127.184 45.7968 127.793 46.3526C127.784 45.8459 127.627 45.3527 127.341 44.9333C127.341 44.9333 128.225 45.2235 128.069 46.6259C128.069 46.6259 128.919 47.4963 128.945 47.6946C128.945 47.6946 129.297 46.343 129.071 45.4459C129.071 45.4459 129.8 46.326 129.113 47.9823L129.734 49.0825C129.734 49.0825 130.297 47.3174 130.154 46.505C130.154 46.505 130.758 47.5157 129.867 49.3726L130.316 50.5308C130.316 50.5308 130.916 49.0462 130.955 48.1129C130.955 48.1129 131.311 49.172 130.431 50.8718L130.639 51.6793C130.639 51.6793 131.057 50.5889 131.149 50.2649C131.241 49.9409 131.336 49.9384 131.336 49.9384C131.332 50.674 131.123 51.3941 130.731 52.0179C130.731 52.0179 131.049 53.7056 131.154 53.6935Z" fill="#F47738"/>
    <path opacity="0.1" d="M110.961 56.7485C110.961 56.7485 103.554 51.2284 100.906 57.2079C100.906 57.2079 100.098 58.0421 100.678 59.0407C100.678 59.0407 100.955 58.6514 101.649 59.297C101.895 59.5249 102.167 59.7229 102.46 59.887C102.856 60.1069 103.314 60.1918 103.763 60.1288C103.763 60.1288 106.52 60.6583 109.694 57.6818C109.694 57.6818 110.827 57.3191 110.934 57.1064L109.262 56.8138C109.262 56.8138 109.087 58.0397 108.226 58.5886C108.226 58.5886 109.291 56.8815 109.015 56.7582C108.959 56.7316 108.124 56.6373 108.124 56.6373C108.124 56.6373 107.813 58.7699 106.454 59.5751C106.454 59.5751 108 57.7109 107.808 56.5986L106.539 56.5309C106.539 56.5309 106.323 58.8013 104.809 59.7782C104.809 59.7782 106.355 57.7737 106.265 56.5357L105.008 56.6373C105.008 56.6373 104.753 58.8449 103.489 59.6476C103.489 59.6476 105.039 57.1523 104.721 56.6784C104.721 56.6784 103.574 56.8404 103.29 57.029C103.29 57.029 103.069 58.6103 102.292 59.0117C102.292 59.0117 103.154 57.2345 102.979 57.1112C102.979 57.1112 101.54 57.7181 100.974 58.4096C101.464 57.7475 102.118 57.2241 102.872 56.8912C102.403 56.6968 101.887 56.643 101.387 56.7364C101.387 56.7364 102.003 56.0449 103.222 56.7485C103.222 56.7485 104.362 56.3205 104.556 56.3737C104.556 56.3737 103.452 55.5105 102.537 55.3606C102.537 55.3606 103.639 55.0463 104.889 56.3278L106.148 56.1996C106.148 56.1996 104.748 54.9907 103.945 54.7876C103.945 54.7876 105.117 54.6401 106.469 56.1924L107.711 56.248C107.711 56.248 106.588 55.1067 105.741 54.6957C105.741 54.6957 106.855 54.7924 108.068 56.2746L108.896 56.4076C108.896 56.4076 108.058 55.5903 107.796 55.3775C107.534 55.1648 107.571 55.0753 107.571 55.0753C108.246 55.3732 108.825 55.852 109.243 56.4584C109.243 56.4584 110.929 56.8477 110.961 56.7485Z" fill="#F47738"/>
    <path opacity="0.1" d="M135.617 5.46053C135.617 5.46053 128.21 -0.0620356 125.563 5.91994C125.563 5.91994 124.755 6.75413 125.335 7.75273C125.335 7.75273 125.611 7.36345 126.305 8.00904C126.552 8.23574 126.825 8.43292 127.118 8.59659C127.515 8.81666 127.972 8.90157 128.421 8.83839C128.421 8.83839 131.178 9.36792 134.353 6.38902C134.353 6.38902 135.486 6.02875 135.59 5.81355L133.918 5.52582C133.918 5.52582 133.746 6.75171 132.882 7.30058C132.882 7.30058 133.95 5.59352 133.673 5.4702C133.617 5.44361 132.783 5.34931 132.783 5.34931C132.783 5.34931 132.462 7.48676 131.103 8.2871C131.103 8.2871 132.647 6.42287 132.457 5.31062L131.188 5.24292C131.188 5.24292 130.97 7.51336 129.458 8.48779C129.458 8.48779 131.004 6.48332 130.914 5.24534L129.659 5.34689C129.659 5.34689 129.402 7.55688 128.138 8.35964C128.138 8.35964 129.691 5.86433 129.373 5.39041C129.373 5.39041 128.225 5.55241 127.941 5.74101C127.941 5.74101 127.72 7.32234 126.944 7.72372C126.944 7.72372 127.805 5.94654 127.63 5.8208C127.63 5.8208 126.191 6.43012 125.626 7.12165C126.114 6.45883 126.769 5.93525 127.524 5.60319C127.054 5.40735 126.536 5.35353 126.036 5.44844C126.036 5.44844 126.655 4.75691 127.873 5.46053C127.873 5.46053 129.014 5.03014 129.208 5.08575C129.208 5.08575 128.104 4.22255 127.189 4.07022C127.189 4.07022 128.288 3.75831 129.538 5.03739L130.797 4.90924C130.797 4.90924 129.399 3.70027 128.594 3.49475C128.594 3.49475 129.766 3.34967 131.12 4.90199L132.363 4.95518C132.363 4.95518 131.239 3.81392 130.39 3.40529C130.39 3.40529 131.506 3.502 132.719 4.9842L133.545 5.11718C133.545 5.11718 132.705 4.30959 132.443 4.10165C132.181 3.89371 132.217 3.80183 132.217 3.80183C132.892 4.09937 133.471 4.57825 133.889 5.18489C133.889 5.18489 135.576 5.55241 135.617 5.46053Z" fill="#F47738"/>
    <path opacity="0.1" d="M163.924 12.4584C163.924 12.4584 160.963 3.72722 155.379 7.15827C155.379 7.15827 154.238 7.40006 154.148 8.53891C154.148 8.53891 154.597 8.37449 154.796 9.29331C154.87 9.62014 154.982 9.93738 155.129 10.2387C155.329 10.6443 155.656 10.9742 156.061 11.1793C156.061 11.1793 158.031 13.1741 162.341 12.514C162.341 12.514 163.48 12.8573 163.688 12.7389L162.475 11.5517C162.475 11.5517 161.635 12.4632 160.611 12.427C160.611 12.427 162.463 11.6242 162.31 11.3655C162.278 11.3147 161.645 10.7658 161.645 10.7658C161.645 10.7658 160.174 12.3447 158.597 12.2408C158.597 12.2408 160.929 11.5783 161.405 10.5482L160.4 9.77689C160.4 9.77689 158.929 11.5226 157.126 11.4694C157.126 11.4694 159.553 10.6933 160.167 9.61973L159.075 8.99348C159.075 8.99348 157.619 10.6691 156.109 10.6159C156.109 10.6159 158.808 9.43838 158.815 8.86775C158.815 8.86775 157.779 8.35273 157.437 8.34789C157.437 8.34789 156.354 9.52543 155.495 9.41904C155.495 9.41904 157.214 8.43977 157.141 8.23909C157.141 8.23909 155.612 7.92717 154.75 8.17864C155.53 7.90833 156.366 7.84581 157.177 7.99729C156.9 7.57149 156.505 7.23538 156.039 7.03012C156.039 7.03012 156.942 6.81009 157.546 8.07708C157.546 8.07708 158.73 8.36965 158.857 8.52198C158.857 8.52198 158.439 7.1897 157.772 6.54653C157.772 6.54653 158.857 6.91164 159.153 8.67915L160.264 9.28363C160.264 9.28363 159.805 7.49194 159.252 6.8657C159.252 6.8657 160.303 7.40732 160.531 9.45047L161.526 10.1976C161.526 10.1976 161.249 8.62112 160.783 7.80386C160.783 7.80386 161.647 8.51473 161.803 10.4225L162.407 10.998C162.407 10.998 162.184 9.85185 162.091 9.52785C161.999 9.20384 162.075 9.18208 162.075 9.18208C162.46 9.80933 162.664 10.5307 162.664 11.2663C162.664 11.2663 163.839 12.5213 163.924 12.4584Z" fill="#F47738"/>
    <path opacity="0.1" d="M144.6 12.8864C144.6 12.8864 135.402 11.866 136.162 18.3678C136.162 18.3678 135.888 19.4946 136.89 20.0604C136.89 20.0604 136.931 19.5768 137.861 19.7944C138.189 19.8648 138.524 19.8981 138.86 19.8935C139.314 19.8854 139.753 19.73 140.11 19.4511C140.11 19.4511 142.758 18.5153 143.993 14.3444C143.993 14.3444 144.784 13.4618 144.767 13.2224L143.178 13.8076C143.178 13.8076 143.663 14.9513 143.178 15.8604C143.178 15.8604 143.229 13.8511 142.935 13.8825C142.874 13.8825 142.108 14.2307 142.108 14.2307C142.108 14.2307 142.923 16.2255 142.161 17.6158C142.161 17.6158 142.544 15.2269 141.814 14.3661L140.685 14.9464C140.685 14.9464 141.656 17.0138 140.843 18.6193C140.843 18.6193 141.159 16.1095 140.448 15.0915L139.416 15.8169C139.416 15.8169 140.319 17.8504 139.637 19.1827C139.637 19.1827 139.707 16.2473 139.19 15.9982C139.19 15.9982 138.283 16.7236 138.135 17.0234C138.135 17.0234 138.749 18.4984 138.285 19.2359C138.285 19.2359 138.123 17.2701 137.909 17.2507C137.909 17.2507 136.977 18.5008 136.841 19.3833C136.925 18.5651 137.223 17.7832 137.705 17.1153C137.202 17.1847 136.729 17.3989 136.346 17.7319C136.346 17.7319 136.526 16.8252 137.933 16.8155C137.933 16.8155 138.698 15.8701 138.904 15.8193C138.904 15.8193 137.514 15.6331 136.647 15.9644C136.647 15.9644 137.436 15.1375 139.169 15.6186L140.19 14.8715C140.19 14.8715 138.344 14.4991 137.562 14.7409C137.562 14.7409 138.499 14.0155 140.455 14.6805L141.554 14.0977C141.554 14.0977 140.003 13.6819 139.064 13.7568C139.064 13.7568 140.076 13.2732 141.875 13.943L142.656 13.6408C142.656 13.6408 141.518 13.3579 141.183 13.3047C140.848 13.2515 140.836 13.1596 140.836 13.1596C141.57 13.0757 142.312 13.1962 142.981 13.5078C142.981 13.5078 144.617 12.9879 144.6 12.8864Z" fill="#F47738"/>
    <path opacity="0.1" d="M225.072 84.0154C225.072 84.0154 215.879 82.995 216.638 89.4896C216.638 89.4896 216.364 90.6163 217.366 91.1821C217.366 91.1821 217.408 90.6985 218.337 90.9137C218.665 90.9865 219.001 91.0198 219.337 91.0129C219.791 91.0059 220.23 90.8505 220.587 90.5704C220.587 90.5704 223.235 89.6346 224.458 85.4661C224.458 85.4661 225.249 84.5812 225.232 84.3442L223.642 84.9269C223.642 84.9269 224.128 86.073 223.642 86.9822C223.642 86.9822 223.693 84.9704 223.4 85.0043C223.339 85.0043 222.572 85.3501 222.572 85.3501C222.572 85.3501 223.387 87.3449 222.625 88.7352C222.625 88.7352 223.009 86.3487 222.278 85.4855L221.15 86.0682C221.15 86.0682 222.121 88.1355 221.31 89.741C221.31 89.741 221.623 87.2312 220.912 86.2108L219.881 86.9362C219.881 86.9362 220.783 88.9697 220.101 90.2996C220.101 90.2996 220.172 87.3642 219.655 87.1176C219.655 87.1176 218.75 87.843 218.599 88.1428C218.599 88.1428 219.216 89.6177 218.75 90.3552C218.75 90.3552 218.587 88.3894 218.374 88.3701C218.374 88.3701 217.442 89.6201 217.306 90.5027C217.39 89.6845 217.688 88.9025 218.17 88.2347C217.666 88.3028 217.193 88.5172 216.811 88.8512C216.811 88.8512 216.99 87.9421 218.398 87.9324C218.398 87.9324 219.165 86.987 219.369 86.9386C219.369 86.9386 217.978 86.75 217.112 87.0813C217.112 87.0813 217.9 86.2568 219.636 86.738L220.655 85.9908C220.655 85.9908 218.83 85.6475 218.036 85.8844C218.036 85.8844 218.973 85.159 220.929 85.8216L222.028 85.2413C222.028 85.2413 220.478 84.8254 219.538 84.9003C219.538 84.9003 220.55 84.4167 222.349 85.0865L223.13 84.7818C223.13 84.7818 221.992 84.4989 221.657 84.4482C221.322 84.3974 221.31 84.3031 221.31 84.3031C222.044 84.2177 222.786 84.3374 223.455 84.6489C223.455 84.6489 225.096 84.1193 225.072 84.0154Z" fill="#F47738"/>
    <path opacity="0.1" d="M239.126 92.5697C239.126 92.5697 229.933 91.5518 230.693 98.0439C230.693 98.0439 230.421 99.1707 231.421 99.7365C231.421 99.7365 231.462 99.2529 232.392 99.4705C232.719 99.5415 233.054 99.574 233.389 99.5672C233.841 99.558 234.278 99.4037 234.634 99.1272C234.634 99.1272 237.28 98.1914 238.503 94.0205C238.503 94.0205 239.296 93.1379 239.277 92.8986L237.687 93.4813C237.687 93.4813 238.173 94.6274 237.687 95.5365C237.687 95.5365 237.738 93.5272 237.445 93.5587C237.384 93.5587 236.617 93.9044 236.617 93.9044C236.617 93.9044 237.432 95.8992 236.67 97.2895C236.67 97.2895 237.054 94.903 236.323 94.0423L235.195 94.6226C235.195 94.6226 236.166 96.6899 235.355 98.2954C235.355 98.2954 235.668 95.7856 234.957 94.7676L233.926 95.493C233.926 95.493 234.828 97.5265 234.149 98.8588C234.149 98.8588 234.217 95.921 233.7 95.6744C233.7 95.6744 232.795 96.3997 232.644 96.6996C232.644 96.6996 233.261 98.1745 232.795 98.912C232.795 98.912 232.632 96.9462 232.419 96.9268C232.419 96.9268 231.487 98.1769 231.353 99.0595C231.437 98.2416 231.734 97.4598 232.215 96.7914C231.711 96.8608 231.239 97.0751 230.856 97.408C230.856 97.408 231.038 96.4989 232.445 96.4916C232.445 96.4916 233.21 95.5462 233.416 95.4954C233.416 95.4954 232.025 95.3092 231.159 95.6405C231.159 95.6405 231.948 94.8136 233.683 95.2947L234.702 94.5476C234.702 94.5476 232.877 94.2043 232.084 94.4412C232.084 94.4412 233.02 93.7158 234.976 94.3808L236.076 93.798C236.076 93.798 234.525 93.3822 233.586 93.4571C233.586 93.4571 234.598 92.9735 236.396 93.6433L237.178 93.3411C237.178 93.3411 236.039 93.0582 235.707 93.005C235.374 92.9518 235.357 92.8599 235.357 92.8599C236.091 92.776 236.834 92.8965 237.503 93.2081C237.503 93.2081 239.151 92.6737 239.126 92.5697Z" fill="#F47738"/>
    <path opacity="0.1" d="M207.922 20.5141C207.922 20.5141 200.515 14.994 197.867 20.9736C197.867 20.9736 197.059 21.8077 197.639 22.8063C197.639 22.8063 197.916 22.4171 198.61 23.0627C198.856 23.2905 199.128 23.4886 199.421 23.6526C199.817 23.8724 200.275 23.9572 200.724 23.8944C200.724 23.8944 203.481 24.4239 206.657 21.4475C206.657 21.4475 207.788 21.0848 207.895 20.872L206.228 20.5722C206.228 20.5722 206.053 21.7981 205.192 22.3469C205.192 22.3469 206.257 20.6399 205.98 20.5166C205.924 20.49 205.092 20.3957 205.092 20.3957C205.092 20.3957 204.779 22.5283 203.42 23.3335C203.42 23.3335 204.966 21.4692 204.774 20.357L203.505 20.2893C203.505 20.2893 203.289 22.5597 201.775 23.5366C201.775 23.5366 203.323 21.5321 203.231 20.2941L201.974 20.3957C201.974 20.3957 201.731 22.6032 200.454 23.406C200.454 23.406 202.008 20.9107 201.687 20.4368C201.687 20.4368 200.539 20.5988 200.255 20.7874C200.255 20.7874 200.037 22.3687 199.26 22.7701C199.26 22.7701 200.119 20.9929 199.945 20.8696C199.945 20.8696 198.506 21.4765 197.94 22.168C198.429 21.5059 199.083 20.9825 199.838 20.6495C199.369 20.4552 198.852 20.4014 198.353 20.4948C198.353 20.4948 198.972 19.8033 200.19 20.5069C200.19 20.5069 201.328 20.0789 201.522 20.1321C201.522 20.1321 200.418 19.2689 199.503 19.119C199.503 19.119 200.605 18.8047 201.855 20.0862L203.114 19.958C203.114 19.958 201.716 18.7491 200.911 18.5459C200.911 18.5459 202.083 18.3985 203.435 19.9508L204.679 20.0064C204.679 20.0064 203.553 18.8651 202.706 18.4541C202.706 18.4541 203.823 18.5508 205.034 20.033L205.861 20.166C205.861 20.166 205.024 19.3487 204.762 19.1359C204.5 18.9231 204.539 18.853 204.539 18.853C205.213 19.1514 205.791 19.6301 206.208 20.2361C206.208 20.2361 207.89 20.6133 207.922 20.5141Z" fill="#F47738"/>
    <path opacity="0.1" d="M213.651 60.3663C213.651 60.3663 211.098 51.5094 205.356 54.689C205.356 54.689 204.206 54.8655 204.062 56.0116C204.062 56.0116 204.519 55.8689 204.676 56.795C204.735 57.1277 204.833 57.4524 204.968 57.7622C205.148 58.1788 205.46 58.5253 205.856 58.7487C205.856 58.7487 207.734 60.8281 212.069 60.3639C212.069 60.3639 213.19 60.7556 213.403 60.6492L212.256 59.4064C212.256 59.4064 211.375 60.2817 210.355 60.1995C210.355 60.1995 212.239 59.4741 212.093 59.2154C212.064 59.1622 211.457 58.5843 211.457 58.5843C211.457 58.5843 209.918 60.0979 208.346 59.9214C208.346 59.9214 210.707 59.3653 211.227 58.3643L210.256 57.547C210.256 57.547 208.707 59.225 206.909 59.0945C206.909 59.0945 209.355 58.4247 210.03 57.3826L208.967 56.708C208.967 56.708 207.426 58.3159 205.931 58.195C205.931 58.195 208.681 57.1384 208.715 56.5701C208.715 56.5701 207.7 56.0092 207.358 55.9898C207.358 55.9898 206.225 57.1166 205.363 56.9715C205.363 56.9715 207.125 56.0696 207.062 55.8665C207.062 55.8665 205.548 55.4869 204.676 55.6973C205.466 55.4641 206.302 55.44 207.103 55.6272C206.847 55.1896 206.467 54.8366 206.011 54.6116C206.011 54.6116 206.924 54.4303 207.467 55.7239C207.467 55.7239 208.635 56.0672 208.756 56.2268C208.756 56.2268 208.399 54.8752 207.761 54.2054C207.761 54.2054 208.829 54.6165 209.045 56.3961L210.127 57.0513C210.127 57.0513 209.749 55.2379 209.224 54.5995C209.224 54.5995 210.249 55.1871 210.387 57.2375L211.358 58.0282C211.358 58.0282 211.151 56.442 210.724 55.6102C210.724 55.6102 211.557 56.3598 211.625 58.2699L212.202 58.8744C212.202 58.8744 212.032 57.7187 211.959 57.3898C211.887 57.061 211.959 57.015 211.959 57.015C212.319 57.6582 212.491 58.3883 212.457 59.1235C212.457 59.1235 213.564 60.4243 213.651 60.3663Z" fill="#F47738"/>
    <path opacity="0.1" d="M156.757 80.3242C156.757 80.3242 151.799 72.5433 147.195 77.2002C147.195 77.2002 146.142 77.6838 146.326 78.8324C146.326 78.8324 146.727 78.5664 147.139 79.4127C147.288 79.7126 147.472 79.9935 147.688 80.2493C147.977 80.5984 148.374 80.843 148.816 80.9456C148.816 80.9456 151.207 82.4157 155.235 80.7522C155.235 80.7522 156.422 80.8151 156.597 80.6531L155.141 79.7826C155.141 79.7826 154.541 80.8707 153.539 81.0762C153.539 81.0762 155.146 79.8672 154.93 79.6448C154.888 79.6013 154.141 79.2192 154.141 79.2192C154.141 79.2192 153.09 81.1004 151.532 81.3736C151.532 81.3736 153.641 80.1767 153.859 79.0693L152.697 78.5591C152.697 78.5591 151.685 80.6023 149.923 80.9771C149.923 80.9771 152.083 79.6496 152.435 78.46L151.221 78.1118C151.221 78.1118 150.197 80.0873 148.729 80.3895C148.729 80.3895 151.068 78.6051 150.94 78.0489C150.94 78.0489 149.809 77.7951 149.484 77.8724C149.484 77.8724 148.714 79.2724 147.846 79.374C147.846 79.374 149.282 78.0151 149.163 77.8362C149.163 77.8362 147.603 77.8966 146.826 78.3439C147.519 77.8968 148.317 77.6384 149.142 77.5944C148.772 77.2464 148.309 77.0136 147.809 76.9246C147.809 76.9246 148.632 76.4966 149.508 77.5847C149.508 77.5847 150.721 77.5847 150.889 77.7056C150.889 77.7056 150.161 76.4966 149.362 76.0445C149.362 76.0445 150.503 76.1412 151.212 77.7878L152.437 78.1118C152.437 78.1118 151.561 76.4797 150.879 76.013C150.879 76.013 152.027 76.2887 152.738 78.2206L153.884 78.7042C153.884 78.7042 153.238 77.2414 152.59 76.5571C152.59 76.5571 153.6 77.0407 154.204 78.8565L154.932 79.2748C154.932 79.2748 154.447 78.2134 154.274 77.9208C154.102 77.6282 154.17 77.5605 154.17 77.5605C154.695 78.0773 155.066 78.7295 155.24 79.4441C155.24 79.4441 156.691 80.4064 156.757 80.3242Z" fill="#F47738"/>
    <path d="M189.342 40.5667C189.342 40.5667 184.627 32.6383 179.877 37.1502C179.877 37.1502 178.809 37.6096 178.96 38.7557C178.96 38.7557 179.365 38.4994 179.753 39.3577C179.892 39.6629 180.067 39.9503 180.275 40.2137C180.554 40.5703 180.943 40.8252 181.382 40.9391C181.382 40.9391 183.724 42.4817 187.803 40.9391C187.803 40.9391 188.988 41.0382 189.167 40.881L187.743 39.9671C187.743 39.9671 187.112 41.0334 186.102 41.2099C186.102 41.2099 187.745 40.042 187.539 39.822C187.495 39.776 186.762 39.3698 186.762 39.3698C186.762 39.3698 185.653 41.2196 184.093 41.4444C184.093 41.4444 186.238 40.3128 186.488 39.2151L185.342 38.6783C185.342 38.6783 184.267 40.6924 182.493 41.014C182.493 41.014 184.694 39.7543 185.083 38.5768L183.884 38.1899C183.884 38.1899 182.797 40.1242 181.321 40.3902C181.321 40.3902 183.714 38.6783 183.602 38.1198C183.602 38.1198 182.481 37.8296 182.146 37.8973C182.146 37.8973 181.333 39.2731 180.462 39.3481C180.462 39.3481 181.94 38.0375 181.828 37.8538C181.828 37.8538 180.265 37.8659 179.477 38.289C180.183 37.8644 180.989 37.631 181.814 37.612C181.455 37.2526 180.999 37.0055 180.501 36.9011C180.501 36.9011 181.338 36.4973 182.2 37.612C182.2 37.612 183.413 37.6531 183.576 37.7764C183.576 37.7764 182.889 36.5674 182.103 36.0693C182.103 36.0693 183.238 36.1999 183.896 37.8683L185.109 38.231C185.109 38.231 184.287 36.5723 183.617 36.0839C183.617 36.0839 184.758 36.3958 185.408 38.347L186.536 38.8717C186.536 38.8717 185.937 37.3895 185.323 36.6956C185.323 36.6956 186.316 37.2106 186.866 39.0434L187.578 39.4835C187.578 39.4835 187.121 38.4075 186.961 38.1101C186.801 37.8127 186.869 37.7474 186.869 37.7474C187.378 38.2801 187.728 38.9431 187.881 39.6624C187.881 39.6624 189.271 40.6465 189.342 40.5667Z" fill="#F47738"/>
    <path d="M159.512 57.2385C159.512 57.2385 159.755 48.0262 153.331 49.3246C153.331 49.3246 152.181 49.1481 151.695 50.1975C151.695 50.1975 152.181 50.1975 152.045 51.1284C152 51.4603 151.995 51.7964 152.03 52.1294C152.074 52.5812 152.266 53.0061 152.576 53.3384C152.576 53.3384 153.734 55.8869 158.008 56.7525C158.008 56.7525 158.956 57.4658 159.194 57.4271L158.466 55.899C158.466 55.899 157.362 56.4648 156.413 56.0803C156.413 56.0803 158.427 55.9619 158.372 55.6669C158.372 55.6064 157.954 54.8714 157.954 54.8714C157.954 54.8714 156.027 55.8506 154.583 55.2075C154.583 55.2075 157.01 55.3888 157.804 54.5933L157.127 53.5222C157.127 53.5222 155.141 54.6538 153.467 53.9864C153.467 53.9864 156.003 54.088 156.964 53.2973L156.156 52.3301C156.156 52.3301 154.197 53.3989 152.809 52.8331C152.809 52.8331 155.751 52.6565 155.964 52.1222C155.964 52.1222 155.168 51.2832 154.848 51.155C154.848 51.155 153.426 51.8804 152.649 51.4887C152.649 51.4887 154.591 51.1647 154.603 50.9495C154.603 50.9495 153.275 50.1298 152.38 50.0693C153.205 50.0841 154.013 50.3142 154.722 50.7367C154.611 50.2425 154.358 49.7912 153.994 49.4383C153.994 49.4383 154.918 49.5422 155.044 50.9374C155.044 50.9374 156.056 51.6192 156.122 51.8078C156.122 51.8078 156.192 50.4127 155.787 49.5809C155.787 49.5809 156.68 50.2942 156.345 52.0545L157.178 53.0071C157.178 53.0071 157.367 51.1647 157.063 50.3982C157.063 50.3982 157.86 51.2662 157.369 53.2634L158.042 54.3056C158.042 54.3056 158.328 52.7315 158.175 51.8054C158.175 51.8054 158.738 52.7726 158.224 54.6127L158.592 55.3622C158.592 55.3622 158.779 54.2089 158.804 53.8728C158.828 53.5367 158.92 53.5149 158.92 53.5149C159.066 54.2362 159.008 54.9838 158.753 55.6741C158.753 55.6741 159.405 57.27 159.512 57.2385Z" fill="#F47738"/>
    <path opacity="0.1" d="M170.129 174.298C173.739 174.298 176.665 173.805 176.665 173.198C176.665 172.59 173.739 172.098 170.129 172.098C166.52 172.098 163.594 172.59 163.594 173.198C163.594 173.805 166.52 174.298 170.129 174.298Z" fill="#F47738"/>
    <path opacity="0.1" d="M146.301 191.001C149.911 191.001 152.837 190.509 152.837 189.901C152.837 189.293 149.911 188.801 146.301 188.801C142.692 188.801 139.766 189.293 139.766 189.901C139.766 190.509 142.692 191.001 146.301 191.001Z" fill="#F47738"/>
    <path opacity="0.1" d="M23.1058 182.442C26.7153 182.442 29.6413 181.95 29.6413 181.342C29.6413 180.735 26.7153 180.242 23.1058 180.242C19.4964 180.242 16.5703 180.735 16.5703 181.342C16.5703 181.95 19.4964 182.442 23.1058 182.442Z" fill="#F47738"/>
    <path opacity="0.1" d="M195.879 189.9C199.489 189.9 202.415 189.407 202.415 188.799C202.415 188.192 199.489 187.699 195.879 187.699C192.27 187.699 189.344 188.192 189.344 188.799C189.344 189.407 192.27 189.9 195.879 189.9Z" fill="#F47738"/>
    <path d="M202.68 176.484C208.07 176.484 212.439 175.748 212.439 174.84C212.439 173.931 208.07 173.195 202.68 173.195C197.291 173.195 192.922 173.931 192.922 174.84C192.922 175.748 197.291 176.484 202.68 176.484Z" fill="#F47738"/>
    <path d="M206.73 172.15C207.175 171.789 207.5 171.302 207.659 170.752C207.781 170.196 207.543 169.531 207.011 169.328C206.414 169.101 205.776 169.512 205.291 169.928C204.805 170.344 204.254 170.82 203.621 170.733C203.946 170.439 204.189 170.066 204.327 169.65C204.465 169.234 204.493 168.79 204.407 168.361C204.38 168.183 204.304 168.016 204.189 167.877C203.856 167.524 203.257 167.677 202.859 167.955C201.597 168.84 201.245 170.547 201.238 172.085C201.112 171.531 201.218 170.953 201.216 170.392C201.214 169.831 201.056 169.183 200.573 168.888C200.276 168.723 199.942 168.64 199.602 168.646C199.034 168.627 198.401 168.683 198.015 169.096C197.53 169.609 197.658 170.472 198.076 171.03C198.493 171.589 199.131 171.949 199.719 172.341C200.189 172.621 200.59 173.001 200.893 173.456C200.928 173.519 200.956 173.585 200.978 173.654H204.536C205.332 173.254 206.071 172.748 206.73 172.15Z" fill="#F47738"/>
    <path d="M18.7188 176.229C18.7188 176.229 22.444 176.116 23.5724 175.318C24.7009 174.52 29.3071 173.569 29.5862 174.849C29.8653 176.128 35.1873 181.205 30.9792 181.239C26.771 181.273 21.2014 180.586 20.0802 179.905C18.959 179.223 18.7188 176.229 18.7188 176.229Z" fill="#A8A8A8"/>
    <path opacity="0.2" d="M31.0496 180.793C26.8414 180.826 21.2718 180.14 20.1506 179.458C19.2963 178.94 18.9566 177.081 18.8425 176.223H18.7188C18.7188 176.223 18.9614 179.218 20.0754 179.898C21.1893 180.577 26.7662 181.266 30.9743 181.233C32.1878 181.233 32.6076 180.793 32.5858 180.154C32.4159 180.544 31.9524 180.785 31.0496 180.793Z" fill="black"/>
  </g>
  <defs>
    <linearGradient id="paint0_linear_54904_124274" x1="54.6176" y1="104.797" x2="130.367" y2="104.797" gradientUnits="userSpaceOnUse">
      <stop stop-color="#808080" stop-opacity="0.25"/>
      <stop offset="0.54" stop-color="#808080" stop-opacity="0.12"/>
      <stop offset="1" stop-color="#808080" stop-opacity="0.1"/>
    </linearGradient>
    <clipPath id="clip0_54904_124274">
      <rect width="245" height="191" fill="white" transform="translate(0.5)"/>
    </clipPath>
  </defs>
</svg>