<svg width="278" height="168" viewBox="0 0 278 168" fill="none" xmlns="http://www.w3.org/2000/svg">
<g clip-path="url(#clip0_4321_79472)">
<path d="M23.4312 36.447C31.315 36.447 37.7061 30.0492 37.7061 22.1571C37.7061 14.265 31.315 7.86719 23.4312 7.86719C15.5474 7.86719 9.15625 14.265 9.15625 22.1571C9.15625 30.0492 15.5474 36.447 23.4312 36.447Z" fill="#F47738"/>
<path d="M138.285 168C214.382 168 276.07 165.496 276.07 162.408C276.07 159.32 214.382 156.816 138.285 156.816C62.1885 156.816 0.5 159.32 0.5 162.408C0.5 165.496 62.1885 168 138.285 168Z" fill="#E6E6E6"/>
<path d="M35.5667 92.3318C54.9335 92.3318 70.6333 76.6155 70.6333 57.2284C70.6333 37.8413 54.9335 22.125 35.5667 22.125C16.1999 22.125 0.5 37.8413 0.5 57.2284C0.5 76.6155 16.1999 92.3318 35.5667 92.3318Z" fill="#0B4B66"/>
<path d="M38.9461 162.961H31.7637L35.0379 51.9414L38.9461 162.961Z" fill="#3F3D56"/>
<path d="M35.6712 72.9836L43.3819 62.3047L35.5657 75.6269L34.7207 74.1467L35.6712 72.9836Z" fill="#3F3D56"/>
<path d="M34.8275 83.7648L27.1172 73.0859L34.9333 86.4081L35.7783 84.9279L34.8275 83.7648Z" fill="#3F3D56"/>
<path d="M257.295 163.079H250.113L253.388 52.0586L257.295 163.079Z" fill="#3F3D56"/>
<path d="M254.021 73.0969L261.731 62.418L253.915 75.7402L253.07 74.2599L254.021 73.0969Z" fill="#3F3D56"/>
<path d="M253.175 83.882L245.465 73.2031L253.281 86.5253L254.126 85.0451L253.175 83.882Z" fill="#3F3D56"/>
<path d="M142.955 163.059C179.033 163.059 208.28 133.782 208.28 97.6663C208.28 61.5508 179.033 32.2734 142.955 32.2734C106.878 32.2734 77.6309 61.5508 77.6309 97.6663C77.6309 133.782 106.878 163.059 142.955 163.059Z" fill="#3F3D56"/>
<path d="M142.956 157.647C176.047 157.647 202.873 130.793 202.873 97.6671C202.873 64.5413 176.047 37.6875 142.956 37.6875C109.865 37.6875 83.0391 64.5413 83.0391 97.6671C83.0391 130.793 109.865 157.647 142.956 157.647Z" fill="white"/>
<path d="M142.74 105.895C147.16 105.895 150.743 102.308 150.743 97.8828C150.743 93.4581 147.16 89.8711 142.74 89.8711C138.32 89.8711 134.736 93.4581 134.736 97.8828C134.736 102.308 138.32 105.895 142.74 105.895Z" fill="#3F3D56"/>
<path d="M144.471 40.7188H141.01V47.2147H144.471V40.7188Z" fill="#3F3D56"/>
<path d="M144.471 148.551H141.01V155.047H144.471V148.551Z" fill="#3F3D56"/>
<path d="M92.125 99.6169V96.1523H85.6358V99.6169H92.125Z" fill="#3F3D56"/>
<path d="M199.844 99.6169V96.1523H193.355V99.6169H199.844Z" fill="#3F3D56"/>
<path d="M140.434 101.36L143.391 94.5898L180.452 115.137L140.434 101.36Z" fill="#3F3D56"/>
<path d="M151.391 16.4648H134.52V35.9528H151.391V16.4648Z" fill="#3F3D56"/>
<path d="M142.956 21.8813C153.707 21.8813 162.423 19.4577 162.423 16.468C162.423 13.4783 153.707 11.0547 142.956 11.0547C132.204 11.0547 123.488 13.4783 123.488 16.468C123.488 19.4577 132.204 21.8813 142.956 21.8813Z" fill="#3F3D56"/>
<path d="M179.405 109.25L178.323 110.766C178.323 110.766 173.348 116.612 173.132 113.797C172.915 110.982 176.809 109.034 176.809 109.034L178.972 107.734L179.405 109.25Z" fill="#FFB8B8"/>
<path d="M210.194 114.363L211.1 115.99C211.1 115.99 214.249 122.993 211.615 121.984C208.981 120.975 208.888 116.619 208.888 116.619L208.641 114.105L210.194 114.363Z" fill="#FFB8B8"/>
<path d="M205.325 85.5108C208.962 85.5108 211.911 82.5589 211.911 78.9175C211.911 75.2761 208.962 72.3242 205.325 72.3242C201.687 72.3242 198.738 75.2761 198.738 78.9175C198.738 82.5589 201.687 85.5108 205.325 85.5108Z" fill="#2F2E41"/>
<path d="M204.711 133.07L205.576 138.7V140.432H210.551V138.267C210.551 138.267 210.767 134.369 209.902 133.287C209.037 132.204 204.711 133.07 204.711 133.07Z" fill="#FFB8B8"/>
<path d="M195.844 133.07L196.709 138.7V140.432H201.684V138.267C201.684 138.267 201.9 134.369 201.035 133.287C200.17 132.204 195.844 133.07 195.844 133.07Z" fill="#FFB8B8"/>
<path d="M199.19 87.8477C199.19 87.8477 197.277 88.8573 198.584 91.1539C199.891 93.4504 207.559 117.21 207.559 117.21L211.983 115.953L208.081 100.927L205.847 91.4824L199.19 87.8477Z" fill="#0B4B66"/>
<path d="M204.604 85.7574C207.352 85.7574 209.579 83.5276 209.579 80.7771C209.579 78.0266 207.352 75.7969 204.604 75.7969C201.856 75.7969 199.629 78.0266 199.629 80.7771C199.629 83.5276 201.856 85.7574 204.604 85.7574Z" fill="#FFB8B8"/>
<path d="M206.875 81.5352L206.226 91.7122L201.684 88.4642C201.684 88.4642 203.198 82.4013 202.765 81.9682L206.875 81.5352Z" fill="#FFB8B8"/>
<path d="M206.874 90.8435L201.981 87.216C201.981 87.216 199.736 86.2963 199.087 87.379C198.438 88.4616 195.194 104.485 196.924 107.517C196.924 107.517 206.225 109.465 208.172 108.383L209.037 102.753C209.037 102.753 210.119 99.2883 208.388 97.1229L206.874 90.8435Z" fill="#0B4B66"/>
<path d="M200.385 87.5975C200.385 87.5975 198.655 86.2983 197.141 88.4636C195.627 90.6289 177.457 107.735 177.457 107.735L180.485 111.2L192.382 101.239L199.953 95.1761L200.385 87.5975Z" fill="#0B4B66"/>
<path d="M208.281 108.278C208.281 108.278 197.573 106.221 196.492 107.737L196.276 110.119C196.276 110.119 193.896 114.666 195.194 122.028C196.492 129.39 195.627 133.937 195.627 133.937C195.627 133.937 201.467 133.288 205.793 133.937C210.119 134.587 210.768 133.937 210.768 133.937L208.281 108.278Z" fill="#2F2E41"/>
<path d="M210.984 139.566L204.711 139.783L206.874 156.023C206.874 156.023 205.144 162.952 207.09 163.385C208.444 163.658 209.82 163.803 211.2 163.818C211.2 163.818 213.147 165.767 215.31 165.55C216.746 165.367 218.138 164.927 219.42 164.251C219.42 164.251 219.852 162.952 218.338 162.519C216.824 162.086 212.714 160.787 211.849 156.239L210.984 139.566Z" fill="#2F2E41"/>
<path d="M202.117 139.566L195.844 139.783L198.007 156.023C198.007 156.023 196.276 162.952 198.223 163.385C199.576 163.658 200.952 163.803 202.333 163.818C202.333 163.818 204.28 165.767 206.443 165.55C207.879 165.367 209.271 164.927 210.553 164.251C210.553 164.251 210.985 162.952 209.471 162.519C207.957 162.086 203.847 160.787 202.982 156.239L202.117 139.566Z" fill="#2F2E41"/>
<path d="M207.628 74.7065C209.133 74.7065 210.353 73.485 210.353 71.9783C210.353 70.4715 209.133 69.25 207.628 69.25C206.123 69.25 204.902 70.4715 204.902 71.9783C204.902 73.485 206.123 74.7065 207.628 74.7065Z" fill="#2F2E41"/>
<path d="M211.262 70.5017C211.262 69.8273 211.012 69.1769 210.561 68.6758C210.111 68.1747 209.49 67.8585 208.82 67.7882C208.915 67.7784 209.009 67.7735 209.104 67.7734C209.827 67.7734 210.52 68.0609 211.031 68.5725C211.542 69.0842 211.83 69.7781 211.83 70.5017C211.83 71.2253 211.542 71.9192 211.031 72.4309C210.52 72.9425 209.827 73.23 209.104 73.23C209.009 73.2299 208.915 73.225 208.82 73.2152C209.49 73.1449 210.111 72.8287 210.561 72.3276C211.012 71.8265 211.262 71.1761 211.262 70.5017Z" fill="#2F2E41"/>
<path d="M204.558 80.2495C207.067 80.2495 209.1 79.028 209.1 77.5212C209.1 76.0145 207.067 74.793 204.558 74.793C202.049 74.793 200.016 76.0145 200.016 77.5212C200.016 79.028 202.049 80.2495 204.558 80.2495Z" fill="#2F2E41"/>
<path d="M276.105 13.0952C275.919 9.81125 274.575 6.70002 272.311 4.3162C270.047 1.93237 267.011 0.430894 263.744 0.0794701C260.477 -0.271954 257.192 0.549518 254.474 2.39742C251.755 4.24533 249.781 6.99954 248.903 10.169C248.735 10.163 248.567 10.1562 248.398 10.1562C245.402 10.1568 242.488 11.1282 240.09 12.9251C237.692 14.722 235.94 17.2478 235.095 20.1246C233.11 19.2516 230.892 19.0622 228.788 19.5861C226.685 20.11 224.814 21.3175 223.469 23.0197H266.716C267.978 23.0232 269.227 22.7719 270.39 22.2807C271.552 21.7896 272.604 21.0687 273.481 20.1612C274.359 19.2537 275.044 18.1782 275.497 16.9993C275.949 15.8203 276.159 14.5621 276.115 13.2999C276.112 13.2317 276.109 13.1635 276.105 13.0952Z" fill="#E6E6E6"/>
<path d="M239.95 42.3032C242.007 42.3032 243.674 40.6343 243.674 38.5755C243.674 36.5166 242.007 34.8477 239.95 34.8477C237.894 34.8477 236.227 36.5166 236.227 38.5755C236.227 40.6343 237.894 42.3032 239.95 42.3032Z" fill="#E6E6E6"/>
<path d="M251.194 32.8915C252.907 32.8915 254.295 31.5018 254.295 29.7875C254.295 28.0733 252.907 26.6836 251.194 26.6836C249.482 26.6836 248.094 28.0733 248.094 29.7875C248.094 31.5018 249.482 32.8915 251.194 32.8915Z" fill="#E6E6E6"/>
<path d="M266.327 50.3814C268.384 50.3814 270.051 48.7124 270.051 46.6536C270.051 44.5948 268.384 42.9258 266.327 42.9258C264.271 42.9258 262.604 44.5948 262.604 46.6536C262.604 48.7124 264.271 50.3814 266.327 50.3814Z" fill="#E6E6E6"/>
<path d="M238.089 67.4673C240.146 67.4673 241.813 65.7983 241.813 63.7395C241.813 61.6807 240.146 60.0117 238.089 60.0117C236.032 60.0117 234.365 61.6807 234.365 63.7395C234.365 65.7983 236.032 67.4673 238.089 67.4673Z" fill="#E6E6E6"/>
<path d="M266.327 88.9009C268.384 88.9009 270.051 87.2319 270.051 85.1731C270.051 83.1143 268.384 81.4453 266.327 81.4453C264.271 81.4453 262.604 83.1143 262.604 85.1731C262.604 87.2319 264.271 88.9009 266.327 88.9009Z" fill="#E6E6E6"/>
<path d="M260.426 157.053C260.427 157.013 260.432 156.973 260.432 156.933C260.433 156.308 260.277 155.693 259.978 155.145C259.679 154.596 259.248 154.132 258.723 153.795C258.197 153.457 257.596 153.257 256.974 153.214C256.351 153.17 255.728 153.284 255.161 153.545C254.629 152.93 253.91 152.507 253.115 152.341C252.319 152.174 251.491 152.273 250.758 152.623C250.024 152.972 249.425 153.553 249.053 154.276C248.681 154.999 248.555 155.824 248.696 156.625C248.677 156.624 248.659 156.622 248.64 156.622C248.047 156.621 247.463 156.762 246.935 157.032C246.408 157.303 245.952 157.696 245.607 158.179C245.262 158.661 245.036 159.219 244.95 159.806C244.864 160.393 244.918 160.992 245.11 161.554C245.301 162.116 245.624 162.623 246.051 163.035C246.478 163.447 246.997 163.75 247.565 163.921C248.133 164.091 248.733 164.123 249.316 164.014C249.899 163.906 250.447 163.659 250.916 163.296C251.211 163.872 251.652 164.361 252.194 164.715C252.737 165.069 253.362 165.275 254.008 165.314C254.654 165.352 255.299 165.221 255.879 164.933C256.459 164.645 256.954 164.211 257.315 163.674C257.758 163.996 258.267 164.217 258.806 164.32C259.344 164.423 259.898 164.406 260.429 164.27C260.96 164.133 261.454 163.881 261.876 163.532C262.298 163.182 262.638 162.743 262.871 162.247C263.105 161.751 263.225 161.209 263.225 160.66C263.225 160.112 263.104 159.57 262.87 159.074C262.637 158.578 262.296 158.139 261.874 157.79C261.451 157.441 260.957 157.189 260.426 157.053Z" fill="#E6E6E6"/>
<path d="M269.741 71.8135C270.598 71.8135 271.293 71.1181 271.293 70.2603C271.293 69.4024 270.598 68.707 269.741 68.707C268.884 68.707 268.189 69.4024 268.189 70.2603C268.189 71.1181 268.884 71.8135 269.741 71.8135Z" fill="#E6E6E6"/>
<path d="M259.811 34.5362C260.668 34.5362 261.363 33.8408 261.363 32.9829C261.363 32.1251 260.668 31.4297 259.811 31.4297C258.954 31.4297 258.26 32.1251 258.26 32.9829C258.26 33.8408 258.954 34.5362 259.811 34.5362Z" fill="#E6E6E6"/>
<path d="M254.536 73.0596C255.393 73.0596 256.088 72.3642 256.088 71.5064C256.088 70.6485 255.393 69.9531 254.536 69.9531C253.679 69.9531 252.984 70.6485 252.984 71.5064C252.984 72.3642 253.679 73.0596 254.536 73.0596Z" fill="#E6E6E6"/>
<path d="M255.778 71.5049C256.635 71.5049 257.33 70.8095 257.33 69.9517C257.33 69.0939 256.635 68.3984 255.778 68.3984C254.921 68.3984 254.227 69.0939 254.227 69.9517C254.227 70.8095 254.921 71.5049 255.778 71.5049Z" fill="#E6E6E6"/>
<path d="M256.708 69.9502C257.565 69.9502 258.259 69.2548 258.259 68.397C258.259 67.5392 257.565 66.8438 256.708 66.8438C255.851 66.8438 255.156 67.5392 255.156 68.397C255.156 69.2548 255.851 69.9502 256.708 69.9502Z" fill="#E6E6E6"/>
<path d="M252.985 82.9971C253.842 82.9971 254.537 82.3017 254.537 81.4439C254.537 80.586 253.842 79.8906 252.985 79.8906C252.128 79.8906 251.434 80.586 251.434 81.4439C251.434 82.3017 252.128 82.9971 252.985 82.9971Z" fill="#E6E6E6"/>
<path d="M275.948 100.396C276.805 100.396 277.5 99.7001 277.5 98.8423C277.5 97.9845 276.805 97.2891 275.948 97.2891C275.091 97.2891 274.396 97.9845 274.396 98.8423C274.396 99.7001 275.091 100.396 275.948 100.396Z" fill="#E6E6E6"/>
<path d="M242.743 101.325C243.6 101.325 244.295 100.63 244.295 99.772C244.295 98.9142 243.6 98.2188 242.743 98.2188C241.886 98.2188 241.191 98.9142 241.191 99.772C241.191 100.63 241.886 101.325 242.743 101.325Z" fill="#E6E6E6"/>
<path d="M244.606 53.4854C245.463 53.4854 246.158 52.79 246.158 51.9322C246.158 51.0743 245.463 50.3789 244.606 50.3789C243.749 50.3789 243.055 51.0743 243.055 51.9322C243.055 52.79 243.749 53.4854 244.606 53.4854Z" fill="#E6E6E6"/>
<path d="M251.743 81.4463C252.6 81.4463 253.295 80.7509 253.295 79.8931C253.295 79.0353 252.6 78.3398 251.743 78.3398C250.886 78.3398 250.191 79.0353 250.191 79.8931C250.191 80.7509 250.886 81.4463 251.743 81.4463Z" fill="#E6E6E6"/>
<path d="M250.192 78.962C251.049 78.962 251.744 78.2666 251.744 77.4087C251.744 76.5509 251.049 75.8555 250.192 75.8555C249.335 75.8555 248.641 76.5509 248.641 77.4087C248.641 78.2666 249.335 78.962 250.192 78.962Z" fill="#E6E6E6"/>
</g>
<defs>
<clipPath id="clip0_4321_79472">
<rect width="277" height="168" fill="white" transform="translate(0.5)"/>
</clipPath>
</defs>
</svg>
