<svg width="113" height="112" viewBox="0 0 113 112" fill="none" xmlns="http://www.w3.org/2000/svg">
<path d="M56.5 14.5601C45.5094 14.5601 34.969 18.926 27.1975 26.6976C19.426 34.4691 15.06 45.0095 15.06 56.0001C15.06 66.9906 19.426 77.5311 27.1975 85.3026C34.969 93.0741 45.5094 97.4401 56.5 97.4401C67.4906 97.4401 78.031 93.0741 85.8025 85.3026C93.574 77.5311 97.94 66.9906 97.94 56.0001C97.94 45.0095 93.574 34.4691 85.8025 26.6976C78.031 18.926 67.4906 14.5601 56.5 14.5601Z" fill="#71B04A" fill-opacity="0.2"/>
<path d="M15.06 30.24C14.4659 30.24 13.8962 30.476 13.4761 30.8961C13.056 31.3162 12.82 31.8859 12.82 32.48C12.82 33.0741 13.056 33.6438 13.4761 34.0639C13.8962 34.484 14.4659 34.72 15.06 34.72C15.6541 34.72 16.2238 34.484 16.6439 34.0639C17.064 33.6438 17.3 33.0741 17.3 32.48C17.3 31.8859 17.064 31.3162 16.6439 30.8961C16.2238 30.476 15.6541 30.24 15.06 30.24Z" fill="#88AE45"/>
<path d="M86.74 13.4401C86.443 13.4401 86.1581 13.5581 85.948 13.7681C85.738 13.9781 85.62 14.263 85.62 14.5601C85.62 14.8571 85.738 15.142 85.948 15.352C86.1581 15.5621 86.443 15.6801 86.74 15.6801C87.037 15.6801 87.3219 15.5621 87.532 15.352C87.742 15.142 87.86 14.8571 87.86 14.5601C87.86 14.263 87.742 13.9781 87.532 13.7681C87.3219 13.5581 87.037 13.4401 86.74 13.4401ZM93.46 12.3201C92.2718 12.3201 91.1323 12.7921 90.2922 13.6322C89.452 14.4724 88.98 15.6119 88.98 16.8001C88.98 17.9882 89.452 19.1277 90.2922 19.9679C91.1323 20.8081 92.2718 21.2801 93.46 21.2801C94.6482 21.2801 95.7877 20.8081 96.6278 19.9679C97.468 19.1277 97.94 17.9882 97.94 16.8001C97.94 15.6119 97.468 14.4724 96.6278 13.6322C95.7877 12.7921 94.6482 12.3201 93.46 12.3201Z" fill="#88AE45"/>
<path d="M97.94 24.6399C97.3459 24.6399 96.7762 24.8759 96.3561 25.296C95.936 25.7161 95.7 26.2858 95.7 26.8799C95.7 27.474 95.936 28.0437 96.3561 28.4638C96.7762 28.8839 97.3459 29.1199 97.94 29.1199C98.5341 29.1199 99.1039 28.8839 99.5239 28.4638C99.944 28.0437 100.18 27.474 100.18 26.8799C100.18 26.2858 99.944 25.7161 99.5239 25.296C99.1039 24.8759 98.5341 24.6399 97.94 24.6399Z" fill="#88AE45"/>
<path d="M91.22 82.8801C90.6259 82.8801 90.0562 83.1161 89.6361 83.5362C89.216 83.9562 88.98 84.526 88.98 85.1201C88.98 85.7142 89.216 86.2839 89.6361 86.704C90.0562 87.1241 90.6259 87.3601 91.22 87.3601C91.8141 87.3601 92.3839 87.1241 92.8039 86.704C93.224 86.2839 93.46 85.7142 93.46 85.1201C93.46 84.526 93.224 83.9562 92.8039 83.5362C92.3839 83.1161 91.8141 82.8801 91.22 82.8801ZM17.3 66.0801C16.1118 66.0801 14.9723 66.5521 14.1322 67.3922C13.292 68.2324 12.82 69.3719 12.82 70.5601C12.82 71.7482 13.292 72.8878 14.1322 73.7279C14.9723 74.5681 16.1118 75.0401 17.3 75.0401C18.4882 75.0401 19.6277 74.5681 20.4678 73.7279C21.308 72.8878 21.78 71.7482 21.78 70.5601C21.78 69.3719 21.308 68.2324 20.4678 67.3922C19.6277 66.5521 18.4882 66.0801 17.3 66.0801Z" fill="#88AE45"/>
<path d="M28.5 95.2002C27.9059 95.2002 27.3362 95.4362 26.9161 95.8563C26.496 96.2764 26.26 96.8461 26.26 97.4402C26.26 98.0343 26.496 98.604 26.9161 99.0241C27.3362 99.4442 27.9059 99.6802 28.5 99.6802C29.0941 99.6802 29.6638 99.4442 30.0839 99.0241C30.504 98.604 30.74 98.0343 30.74 97.4402C30.74 96.8461 30.504 96.2764 30.0839 95.8563C29.6638 95.4362 29.0941 95.2002 28.5 95.2002Z" fill="#88AE45"/>
<path d="M21.22 57.1201C20.4774 57.1201 19.7652 57.4151 19.2401 57.9402C18.715 58.4653 18.42 59.1775 18.42 59.9201C18.42 60.6627 18.715 61.3749 19.2401 61.9C19.7652 62.4251 20.4774 62.7201 21.22 62.7201C21.9626 62.7201 22.6748 62.4251 23.1999 61.9C23.725 61.3749 24.02 60.6627 24.02 59.9201C24.02 59.1775 23.725 58.4653 23.1999 57.9402C22.6748 57.4151 21.9626 57.1201 21.22 57.1201Z" fill="white"/>
<path d="M24.02 73.9199C23.723 73.9199 23.4381 74.0379 23.228 74.248C23.018 74.458 22.9 74.7429 22.9 75.0399C22.9 75.337 23.018 75.6218 23.228 75.8319C23.4381 76.0419 23.723 76.1599 24.02 76.1599C24.317 76.1599 24.6019 76.0419 24.812 75.8319C25.022 75.6218 25.14 75.337 25.14 75.0399C25.14 74.7429 25.022 74.458 24.812 74.248C24.6019 74.0379 24.317 73.9199 24.02 73.9199Z" fill="#F47738"/>
<path d="M90.1 36.96C89.8029 36.96 89.5181 37.078 89.308 37.288C89.098 37.498 88.98 37.7829 88.98 38.08C88.98 38.377 89.098 38.6619 89.308 38.8719C89.5181 39.082 89.8029 39.2 90.1 39.2C90.397 39.2 90.6819 39.082 90.8919 38.8719C91.102 38.6619 91.22 38.377 91.22 38.08C91.22 37.7829 91.102 37.498 90.8919 37.288C90.6819 37.078 90.397 36.96 90.1 36.96Z" fill="white"/>
<path d="M56.5 29.167C49.3835 29.167 42.5584 31.994 37.5262 37.0262C32.4941 42.0583 29.6671 48.8834 29.6671 56C29.6671 63.1165 32.4941 69.9416 37.5262 74.9737C42.5584 80.0059 49.3835 82.8329 56.5 82.8329C63.6166 82.8329 70.4416 80.0059 75.4738 74.9737C80.5059 69.9416 83.333 63.1165 83.333 56C83.333 48.8834 80.5059 42.0583 75.4738 37.0262C70.4416 31.994 63.6166 29.167 56.5 29.167Z" fill="#71B04A"/>
<path d="M56.5 29.568C71.0746 29.568 82.932 41.4254 82.932 56C82.932 70.5746 71.0746 82.432 56.5 82.432C41.9254 82.432 30.068 70.5746 30.068 56C30.068 41.4254 41.9254 29.568 56.5 29.568ZM56.5 28C41.0362 28 28.5 40.5362 28.5 56C28.5 71.4638 41.0362 84 56.5 84C71.9638 84 84.5 71.4638 84.5 56C84.5 40.5362 71.9638 28 56.5 28Z" fill="#472B29"/>
<path d="M56.5 34.1599C53.6319 34.1599 50.792 34.7248 48.1422 35.8224C45.4924 36.9199 43.0848 38.5287 41.0568 40.5567C39.0288 42.5847 37.42 44.9924 36.3225 47.6421C35.2249 50.2919 34.66 53.1318 34.66 55.9999C34.66 58.868 35.2249 61.708 36.3225 64.3577C37.42 67.0075 39.0288 69.4151 41.0568 71.4431C43.0848 73.4712 45.4924 75.0799 48.1422 76.1774C50.792 77.275 53.6319 77.8399 56.5 77.8399C59.3681 77.8399 62.2081 77.275 64.8578 76.1774C67.5076 75.0799 69.9152 73.4712 71.9432 71.4431C73.9712 69.4151 75.58 67.0075 76.6775 64.3577C77.7751 61.708 78.34 58.868 78.34 55.9999C78.34 53.1318 77.7751 50.2919 76.6775 47.6421C75.58 44.9924 73.9712 42.5847 71.9432 40.5567C69.9152 38.5287 67.5076 36.9199 64.8578 35.8224C62.2081 34.7248 59.3681 34.1599 56.5 34.1599Z" fill="#FDFCEF"/>
<path d="M78.6334 52.5885C78.5853 52.2827 78.2997 52.0733 77.9939 52.1203C77.6882 52.1674 77.4776 52.453 77.5269 52.7598C78.5696 59.453 76.3464 66.2917 71.5808 71.0539C63.2738 79.3554 49.7576 79.3554 41.4506 71.0539C33.1435 62.7536 33.1435 49.2464 41.4506 40.945C49.7576 32.6446 63.2738 32.6446 71.5808 40.945C72.4522 41.8163 73.253 42.784 74.0291 43.9029C74.2061 44.1571 74.5544 44.221 74.8098 44.044C75.0618 43.8704 75.1267 43.5198 74.9509 43.2645C74.1355 42.0896 73.2922 41.0715 72.3726 40.1531C63.6288 31.416 49.4014 31.4149 40.6565 40.1531C31.9126 48.8914 31.9126 63.1086 40.6565 71.8469C49.4003 80.584 63.6277 80.5851 72.3726 71.8469C77.3914 66.8326 79.7322 59.6333 78.6334 52.5885Z" fill="#472B29"/>
<path d="M76.1773 47.9316C76.2949 48.2183 76.623 48.3549 76.9086 48.2373C77.1931 48.1209 77.332 47.7938 77.2133 47.5071C76.8605 46.6492 76.5312 45.9447 76.1762 45.2929C76.0283 45.0207 75.6878 44.921 75.4157 45.0689C75.3675 45.0946 75.3238 45.1282 75.2869 45.1652C75.1155 45.3365 75.0696 45.6053 75.1906 45.8293C75.5277 46.4442 75.8413 47.1129 76.1773 47.9316Z" fill="#472B29"/>
<path d="M46.42 54.1798C45.9339 54.1798 45.4769 54.3691 45.1331 54.7129C44.7893 55.0568 44.6 55.5137 44.6 55.9998C44.6 56.4859 44.7893 56.9428 45.1331 57.2867L52.9731 65.1267C53.3169 65.4705 53.7739 65.6598 54.26 65.6598V66.0798L54.2947 65.6598C54.7931 65.6497 55.268 65.4347 55.6017 65.0707L67.9217 51.6307C68.2499 51.2723 68.419 50.8075 68.3989 50.3214C68.3776 49.8353 68.1681 49.3884 67.8109 49.0592C67.4513 48.731 66.9955 48.5552 66.5016 48.582C66.0166 48.6033 65.5686 48.8116 65.2405 49.17L54.204 61.2089L47.708 54.7129C47.363 54.3691 46.9061 54.1798 46.42 54.1798Z" fill="#88AE45"/>
<path d="M66.58 48.9999C66.9305 48.9999 67.2666 49.131 67.5264 49.3684C67.8019 49.6215 67.9621 49.9654 67.9789 50.3394C67.9946 50.7135 67.8646 51.0708 67.6115 51.3463L55.2915 64.7863C55.035 65.0663 54.6699 65.2321 54.26 65.2399C53.8859 65.2399 53.5342 65.0943 53.2699 64.83L45.4299 56.99C45.1656 56.7257 45.02 56.374 45.02 55.9999C45.02 55.6258 45.1656 55.2742 45.431 55.0098C45.6942 54.7455 46.0459 54.5999 46.42 54.5999C46.7941 54.5999 47.1457 54.7455 47.4101 55.0098L53.5958 61.1956L54.2163 61.8161L54.8088 61.1698L65.5485 49.4535C65.8161 49.1612 66.1824 48.9999 66.58 48.9999ZM66.58 48.1599C65.9741 48.1599 65.3704 48.4041 64.9291 48.8868L54.1894 60.602L48.0037 54.4162C47.5669 53.9783 46.9934 53.7599 46.42 53.7599C45.8465 53.7599 45.2731 53.9783 44.8363 54.4162C43.9616 55.291 43.9616 56.7089 44.8363 57.5836L52.6763 65.4236C53.0963 65.8447 53.6664 66.0799 54.26 66.0799C54.2768 66.0799 54.2925 66.0799 54.3081 66.0799C54.9185 66.0665 55.4976 65.8044 55.9109 65.3542L68.2309 51.9142C69.0675 51.0025 69.0048 49.5846 68.0931 48.749C67.663 48.3548 67.1209 48.1599 66.58 48.1599Z" fill="#472B29"/>
</svg>
