<svg width="113" height="112" viewBox="0 0 113 112" fill="none" xmlns="http://www.w3.org/2000/svg">
<path d="M86.74 15.6799C87.3586 15.6799 87.86 15.1785 87.86 14.5599C87.86 13.9414 87.3586 13.4399 86.74 13.4399C86.1214 13.4399 85.62 13.9414 85.62 14.5599C85.62 15.1785 86.1214 15.6799 86.74 15.6799Z" fill="#F1BC19"/>
<path d="M56.5 97.4401C79.3867 97.4401 97.94 78.8867 97.94 56.0001C97.94 33.1134 79.3867 14.5601 56.5 14.5601C33.6133 14.5601 15.06 33.1134 15.06 56.0001C15.06 78.8867 33.6133 97.4401 56.5 97.4401Z" fill="#F2E6BA"/>
<path d="M93.46 21.2801C95.9342 21.2801 97.94 19.2743 97.94 16.8001C97.94 14.3258 95.9342 12.3201 93.46 12.3201C90.9857 12.3201 88.98 14.3258 88.98 16.8001C88.98 19.2743 90.9857 21.2801 93.46 21.2801Z" fill="#F1BC19"/>
<path d="M97.94 29.1199C99.1771 29.1199 100.18 28.117 100.18 26.8799C100.18 25.6428 99.1771 24.6399 97.94 24.6399C96.7029 24.6399 95.7 25.6428 95.7 26.8799C95.7 28.117 96.7029 29.1199 97.94 29.1199Z" fill="#F2CD49"/>
<path d="M91.22 87.3599C92.4571 87.3599 93.46 86.357 93.46 85.1199C93.46 83.8828 92.4571 82.8799 91.22 82.8799C89.9829 82.8799 88.98 83.8828 88.98 85.1199C88.98 86.357 89.9829 87.3599 91.22 87.3599Z" fill="#FBCD59"/>
<path d="M17.3 75.0401C19.7742 75.0401 21.78 73.0343 21.78 70.5601C21.78 68.0858 19.7742 66.0801 17.3 66.0801C14.8258 66.0801 12.82 68.0858 12.82 70.5601C12.82 73.0343 14.8258 75.0401 17.3 75.0401Z" fill="#FBCD59"/>
<path d="M21.22 60.4799C22.7664 60.4799 24.02 59.2263 24.02 57.6799C24.02 56.1335 22.7664 54.8799 21.22 54.8799C19.6736 54.8799 18.42 56.1335 18.42 57.6799C18.42 59.2263 19.6736 60.4799 21.22 60.4799Z" fill="white"/>
<path d="M89.54 39.2001C90.4678 39.2001 91.22 38.4479 91.22 37.5201C91.22 36.5922 90.4678 35.8401 89.54 35.8401C88.6121 35.8401 87.86 36.5922 87.86 37.5201C87.86 38.4479 88.6121 39.2001 89.54 39.2001Z" fill="white"/>
<path d="M26.26 95.2002C27.4971 95.2002 28.5 94.1973 28.5 92.9602C28.5 91.7231 27.4971 90.7202 26.26 90.7202C25.0229 90.7202 24.02 91.7231 24.02 92.9602C24.02 94.1973 25.0229 95.2002 26.26 95.2002Z" fill="#F2CD49"/>
<path d="M50.284 73.136L37.1879 71.9701C37.2338 66.8024 37.2327 66.7711 37.2315 66.7554C37.2282 66.0464 37.8016 62.4994 40.5277 59.7184L45.0312 55.1253C45.6461 54.4791 46.1445 53.1171 45.0312 51.9826L40.8323 47.7019C40.7618 47.637 37.2259 44.3643 37.2259 39.2011V34.8903C37.4141 34.8287 37.6583 34.7637 37.8834 34.7178H62.1919C62.1874 34.72 62.2187 34.7581 62.2501 34.8264V39.7533C62.1594 44.5637 59.1701 47.6695 59.1399 47.7008L54.941 51.9815C53.8266 53.116 54.325 54.4779 54.9309 55.1163L59.4434 59.7184C62.1986 62.5285 62.7709 66.0509 62.7653 66.7722C62.7653 67.2661 63.0576 67.4643 63.4597 67.5618L63.4608 71.9679L50.3691 73.136H50.284Z" fill="#FDFCEF"/>
<path d="M61.4672 35.5006V39.723C61.3821 44.2131 58.6067 47.124 58.5787 47.152L54.3809 51.4315C53.0504 52.7867 53.3785 54.619 54.3798 55.6741L58.8833 60.2672C61.4638 62.8992 61.9846 66.2211 61.9813 66.7789C61.9813 67.4408 62.2848 67.8317 62.6756 68.0669L62.6768 71.2566L50.3433 72.352L38.011 71.2566C38.0166 66.9166 38.0155 66.771 38.0155 66.771C38.0121 66.2189 38.534 62.8701 41.0865 60.2672L45.6068 55.6573C46.5913 54.6224 46.9206 52.7901 45.59 51.4326L41.3923 47.152L41.3576 47.1173L41.3273 47.0893C41.2937 47.059 38.011 43.9936 38.011 39.2V35.5006H49.9872H61.4672ZM62.2097 33.9326C62.2041 33.9326 62.1985 33.9326 62.1929 33.9326H49.9872H37.8072C37.8072 33.9326 35.8796 34.2966 36.443 34.72V39.2C36.443 44.8 40.2734 48.2507 40.2734 48.2507C40.2734 48.2507 43.4845 51.5245 44.4723 52.5313C45.4601 53.5382 44.4723 54.5765 44.4723 54.5765C44.4723 54.5765 43.0264 56.0515 39.9688 59.1696C37.0993 62.0961 36.4441 65.8493 36.4497 66.78C36.4509 66.8147 36.4441 71.9678 36.4441 71.9678C36.4441 72.3766 36.7376 72.716 37.1195 72.7507L50.284 73.92C50.3243 73.92 50.3635 73.92 50.4038 73.92L63.5694 72.7507C63.9513 72.716 64.2448 72.3755 64.2448 71.9667L64.2437 66.8797C64.2437 66.8797 63.5492 66.8136 63.5492 66.7777C63.5571 65.8179 62.8705 62.0928 60.0033 59.1685C56.9457 56.0504 55.4987 54.5753 55.4987 54.5753C55.4987 54.5753 54.5108 53.536 55.4987 52.5302C56.4865 51.5245 59.6976 48.2496 59.6976 48.2496C59.6976 48.2496 62.9344 44.9747 63.034 39.7521V34.6909C62.9142 34.2731 62.5995 33.9326 62.2097 33.9326Z" fill="#472B29"/>
<path d="M63.0777 72.7998L62.8381 72.7058L50.9 63.3605V51.4414C51.031 48.6784 52.7267 46.9334 53.3461 46.3723L58.3289 41.0198C60.4659 39.1472 60.4973 36.1221 60.4995 35.8398H39.2509C39.2509 36.1523 39.327 39.1819 41.4214 41.0198L46.4693 46.4317C47.0237 46.9323 48.3217 48.6773 48.66 51.4403V63.3538L36.6715 72.7998H63.0777Z" fill="#F6CCA4"/>
<path d="M64.5494 73.0799H35.8629L48.38 63.2172V51.4404C48.063 48.8622 46.868 47.1698 46.2811 46.639L41.2176 41.2114C38.9977 39.2638 38.9709 35.9799 38.9709 35.841V35.561H60.7829L60.7806 35.8433C60.7761 36.4156 60.6462 39.3634 58.5149 41.2316L53.551 46.5639C52.8678 47.1844 51.3032 48.8689 51.1811 51.455V63.225L62.9803 72.4606L64.5494 73.0799ZM37.4801 72.5199H62.147L50.62 63.4972V51.4415C50.7533 48.6326 52.4389 46.8159 53.1579 46.1652L58.1251 40.8295C59.86 39.3074 60.1601 37.0126 60.2105 36.1199H39.5409C39.5925 36.9319 39.8904 39.3041 41.6062 40.8094L46.6731 46.2402C47.2969 46.8025 48.5984 48.6303 48.9366 51.4068L48.9389 63.4894L37.4801 72.5199Z" fill="#472B29"/>
<path d="M36.3803 36.1762C35.556 36.1762 34.884 35.3989 34.884 34.4424V31.6368C34.884 30.6815 35.556 29.9031 36.3803 29.9031H63.1797C64.004 29.9031 64.676 30.6804 64.676 31.6368V34.4424C64.676 35.3978 64.004 36.1762 63.1797 36.1762H36.3803Z" fill="#9E400A"/>
<path d="M63.1797 30.6881C63.5593 30.6881 63.892 31.1316 63.892 31.6379V34.4435C63.892 34.9497 63.5593 35.3932 63.1797 35.3932H36.3803C36.0006 35.3932 35.668 34.9497 35.668 34.4435V31.6379C35.668 31.1316 36.0006 30.6881 36.3803 30.6881H63.1797ZM63.1797 29.1201H36.3803C35.1259 29.1201 34.1 30.2536 34.1 31.6379V34.4435C34.1 35.8278 35.127 36.9601 36.3803 36.9601H63.1797C64.4329 36.9601 65.46 35.8278 65.46 34.4424V31.6368C65.46 30.2524 64.4329 29.1201 63.1797 29.1201Z" fill="#472B29"/>
<path d="M36.1966 77.6161C35.4843 77.6161 34.884 76.8948 34.884 76.0425V72.9188C34.884 72.0654 35.4843 71.3452 36.1966 71.3452H63.3633C64.0756 71.3452 64.676 72.0665 64.676 72.9188V76.0425C64.676 76.8959 64.0756 77.6161 63.3633 77.6161H36.1966Z" fill="#9E400A"/>
<path d="M63.3633 72.1281C63.6131 72.1281 63.892 72.4663 63.892 72.9188V76.0425C63.892 76.4949 63.6131 76.8332 63.3633 76.8332H36.1966C35.9469 76.8332 35.668 76.4949 35.668 76.0425V72.9188C35.668 72.4663 35.9469 72.1281 36.1966 72.1281H63.3633ZM63.3633 70.5601H36.1966C35.043 70.5601 34.1 71.6207 34.1 72.9177V76.0413C34.1 77.3394 35.043 78.4001 36.1966 78.4001H63.3645C64.5169 78.4001 65.46 77.3394 65.46 76.0425V72.9188C65.46 71.6207 64.5169 70.5601 63.3633 70.5601Z" fill="#472B29"/>
<path d="M70.5 84C78.232 84 84.5 77.732 84.5 70C84.5 62.268 78.232 56 70.5 56C62.768 56 56.5 62.268 56.5 70C56.5 77.732 62.768 84 70.5 84Z" fill="#931847"/>
<path d="M70.5 84.5599C62.4718 84.5599 55.94 78.0281 55.94 69.9999C55.94 61.9718 62.4718 55.4399 70.5 55.4399C78.5282 55.4399 85.06 61.9718 85.06 69.9999C85.06 78.0281 78.5282 84.5599 70.5 84.5599ZM70.5 56.5599C63.089 56.5599 57.06 62.5889 57.06 69.9999C57.06 77.411 63.089 83.4399 70.5 83.4399C77.911 83.4399 83.94 77.411 83.94 69.9999C83.94 62.5889 77.911 56.5599 70.5 56.5599Z" fill="#472B29"/>
<path d="M70.5 81.7597C76.9949 81.7597 82.26 76.4946 82.26 69.9997C82.26 63.5049 76.9949 58.2397 70.5 58.2397C64.0051 58.2397 58.74 63.5049 58.74 69.9997C58.74 76.4946 64.0051 81.7597 70.5 81.7597Z" fill="#FDFCEE"/>
<path d="M70.5 82.04C63.8607 82.04 58.46 76.6393 58.46 70C58.46 63.3606 63.8607 57.96 70.5 57.96C77.1394 57.96 82.54 63.3606 82.54 70C82.54 76.6393 77.1394 82.04 70.5 82.04ZM70.5 58.52C64.1698 58.52 59.02 63.6697 59.02 70C59.02 76.3302 64.1698 81.48 70.5 81.48C76.8303 81.48 81.98 76.3302 81.98 70C81.98 63.6697 76.8303 58.52 70.5 58.52Z" fill="#472B29"/>
<path d="M72.1117 67.8125L63.6344 76.3413C63.4227 76.5541 63.1651 76.9035 63.3779 77.1163C63.5896 77.3291 63.9368 77.0716 64.1485 76.8576L72.6257 68.3288C72.9886 68.424 73.6461 68.3748 73.9294 68.0892L74.7 67.3141C75.1233 66.8874 75.1233 66.1896 74.7 65.7629C74.2766 65.3362 73.5822 65.3362 73.1589 65.7629L72.3883 66.538C72.1049 66.8247 72.0165 67.4474 72.1117 67.8125Z" fill="#472B29"/>
<path d="M77.4922 70.7752H71.8127C71.5965 70.7752 71.4207 70.6005 71.4207 70.3832C71.4207 70.1659 71.5965 69.9912 71.8127 69.9912H77.4922C77.7083 69.9912 77.8842 70.1659 77.8842 70.3832C77.8842 70.6005 77.7083 70.7752 77.4922 70.7752Z" fill="#472B29"/>
<path d="M70.1886 69.5587C69.9725 69.5587 69.7966 69.384 69.7966 69.1667V59.8349C69.7966 59.6187 69.9725 59.4429 70.1886 59.4429C70.4048 59.4429 70.5806 59.6176 70.5806 59.8349V69.1667C70.5806 69.384 70.4048 69.5587 70.1886 69.5587Z" fill="#472B29"/>
<path d="M70.1887 68.9639C69.4047 68.9639 68.7685 69.6 68.7685 70.384C68.7685 71.168 69.4047 71.8042 70.1887 71.8042C70.9727 71.8042 71.6088 71.168 71.6088 70.384C71.6088 69.6 70.9727 68.9639 70.1887 68.9639Z" fill="#FBCD59"/>
<path d="M70.1886 72.195C69.1896 72.195 68.3765 71.3819 68.3765 70.3828C68.3765 69.3838 69.1896 68.5718 70.1886 68.5718C71.1877 68.5718 72.0008 69.3849 72.0008 70.3828C72.0008 71.383 71.1877 72.195 70.1886 72.195ZM70.1886 69.3547C69.6219 69.3547 69.1605 69.8161 69.1605 70.3828C69.1605 70.9507 69.6219 71.4121 70.1886 71.4121C70.7553 71.4121 71.2168 70.9507 71.2168 70.3828C71.2168 69.8161 70.7553 69.3547 70.1886 69.3547Z" fill="#472B29"/>
<path d="M61.54 71.3998H58.8453C58.6907 71.3998 58.5653 71.2744 58.5653 71.1198C58.5653 70.9653 58.6907 70.8398 58.8453 70.8398H61.54C61.6946 70.8398 61.82 70.9653 61.82 71.1198C61.82 71.2744 61.6946 71.3998 61.54 71.3998Z" fill="#472B29"/>
<path d="M82.0853 71.3998H79.46C79.3054 71.3998 79.18 71.2744 79.18 71.1198C79.18 70.9653 79.3054 70.8398 79.46 70.8398H82.0853C82.2398 70.8398 82.3653 70.9653 82.3653 71.1198C82.3653 71.2744 82.2387 71.3998 82.0853 71.3998Z" fill="#472B29"/>
<path d="M70.4653 81.9001C70.3107 81.9001 70.1853 81.7747 70.1853 81.6201V78.9948C70.1853 78.8403 70.3107 78.7148 70.4653 78.7148C70.6199 78.7148 70.7453 78.8403 70.7453 78.9948V81.6201C70.7453 81.7747 70.6187 81.9001 70.4653 81.9001Z" fill="#472B29"/>
<path d="M76.8246 63.9193C76.7529 63.9193 76.6813 63.8925 76.6264 63.8376C76.5166 63.7278 76.5166 63.5509 76.6264 63.4411L78.4822 61.5852C78.592 61.4755 78.7689 61.4755 78.8787 61.5852C78.9885 61.695 78.9885 61.872 78.8787 61.9817L77.0229 63.8376C76.968 63.8925 76.8974 63.9193 76.8246 63.9193Z" fill="#472B29"/>
<path d="M64.1541 63.9686C64.0824 63.9686 64.0107 63.9417 63.9558 63.8868L62.0507 61.9817C61.9409 61.872 61.9409 61.695 62.0507 61.5852C62.1605 61.4755 62.3374 61.4755 62.4472 61.5852L64.3523 63.4904C64.4621 63.6001 64.4621 63.7771 64.3523 63.8868C64.2974 63.9417 64.2257 63.9686 64.1541 63.9686Z" fill="#472B29"/>
<path d="M78.6816 78.4965C78.6099 78.4965 78.5383 78.4696 78.4834 78.4147L76.6275 76.5589C76.5178 76.4491 76.5178 76.2722 76.6275 76.1624C76.7373 76.0526 76.9143 76.0526 77.024 76.1624L78.8799 78.0182C78.9896 78.128 78.9896 78.305 78.8799 78.4147C78.825 78.4696 78.7533 78.4965 78.6816 78.4965Z" fill="#472B29"/>
<path d="M43.62 33.32H38.02C37.8654 33.32 37.74 33.1946 37.74 33.04C37.74 32.8854 37.8654 32.76 38.02 32.76H43.62C43.7746 32.76 43.9 32.8854 43.9 33.04C43.9 33.1946 43.7746 33.32 43.62 33.32Z" fill="#472B29"/>
<path d="M41.38 74.7602H38.02C37.8654 74.7602 37.74 74.6348 37.74 74.4802C37.74 74.3256 37.8654 74.2002 38.02 74.2002H41.38C41.5346 74.2002 41.66 74.3256 41.66 74.4802C41.66 74.6348 41.5346 74.7602 41.38 74.7602Z" fill="#472B29"/>
<path d="M54.82 74.7602H43.62C43.4655 74.7602 43.34 74.6348 43.34 74.4802C43.34 74.3256 43.4655 74.2002 43.62 74.2002H54.82C54.9746 74.2002 55.1 74.3256 55.1 74.4802C55.1 74.6348 54.9746 74.7602 54.82 74.7602Z" fill="#472B29"/>
<path d="M61.54 33.32H46.98C46.8255 33.32 46.7 33.1946 46.7 33.04C46.7 32.8854 46.8255 32.76 46.98 32.76H61.54C61.6946 32.76 61.82 32.8854 61.82 33.04C61.82 33.1946 61.6946 33.32 61.54 33.32Z" fill="#472B29"/>
</svg>
