<svg width="232" height="160" viewBox="0 0 232 160" fill="none" xmlns="http://www.w3.org/2000/svg">
<g clip-path="url(#clip0_4327_82900)">
<path d="M50.5533 155.972H54.1497L55.8607 142.148L50.5527 142.149L50.5533 155.972Z" fill="#A0616A"/>
<path d="M49.6367 154.801L56.7193 154.801H56.7196C57.9166 154.801 59.0646 155.275 59.9111 156.118C60.7575 156.962 61.2331 158.106 61.2331 159.299V159.445L49.6369 159.445L49.6367 154.801Z" fill="#2F2E41"/>
<path d="M74.3111 155.972H77.9075L79.6185 142.148L74.3105 142.149L74.3111 155.972Z" fill="#A0616A"/>
<path d="M73.3926 154.801L80.4752 154.801H80.4754C81.6725 154.801 82.8205 155.275 83.6669 156.118C84.5134 156.962 84.9889 158.106 84.989 159.299V159.445L73.3928 159.445L73.3926 154.801Z" fill="#2F2E41"/>
<path d="M162.288 159.469H0.5V160.001H162.288V159.469Z" fill="#E6E6E6"/>
<path d="M47.543 152.976H56.8593L62.8138 101.019L73.7618 152.976H80.0479V91.0188L50.1608 82.1055L47.543 152.976Z" fill="#2F2E41"/>
<path d="M63.4271 36.3915C67.9141 36.3915 71.5515 32.7667 71.5515 28.2953C71.5515 23.824 67.9141 20.1992 63.4271 20.1992C58.9402 20.1992 55.3027 23.824 55.3027 28.2953C55.3027 32.7667 58.9402 36.3915 63.4271 36.3915Z" fill="#A0616A"/>
<path d="M50.8137 83.4109C59.5312 90.2048 69.1537 93.6292 80.0462 92.3241C75.4458 76.2277 74.0813 60.2533 78.5191 44.4975L69.3567 40.367L59.0575 39.7148L51.572 41.9088C50.519 42.2178 49.5971 42.8631 48.9483 43.7455C48.2995 44.6278 47.9598 45.6983 47.9814 46.7919C48.2457 60.2288 47.3493 72.8038 50.8137 83.4109Z" fill="#E6E6E6"/>
<path d="M55.6505 24.2236C56.4321 22.754 57.4252 19.8252 59.0028 19.2821C59.8789 18.9926 60.7844 18.8004 61.7028 18.7089L64.3842 19.7366L62.9249 18.6055C63.209 18.5887 63.493 18.5749 63.7768 18.5642L65.586 19.2576L64.6604 18.5402C66.3471 18.5229 68.0881 18.6977 69.3951 19.7209C70.5093 20.5932 71.6132 23.8977 71.7917 25.2984C71.9825 26.6383 71.9157 28.0022 71.5949 29.3173L71.1367 29.7515C70.9764 29.3853 70.8559 29.003 70.7772 28.6112C70.613 27.8792 70.2975 27.1894 69.8509 26.5856C69.4043 25.9818 68.8363 25.4774 68.1833 25.1044L68.1583 25.0904C67.3899 24.6594 66.4574 24.6793 65.5762 24.7109L61.3909 24.861C60.3839 24.8971 59.2996 24.9606 58.5146 25.59C57.9843 26.0151 57.6667 26.6426 57.3646 27.2502C56.9745 28.0347 56.2122 30.994 56.2122 30.994C56.2122 30.994 55.7809 30.4354 55.5742 30.8511C55.2427 29.7664 55.0412 28.6464 54.9738 27.5145C54.9079 26.3775 55.1411 25.2431 55.6505 24.2236Z" fill="#2F2E41"/>
<path d="M225.452 76.5038H131.66C130.056 76.502 128.519 75.8664 127.385 74.7364C126.251 73.6064 125.613 72.0743 125.611 70.4762V6.02759C125.613 4.42952 126.251 2.89742 127.385 1.76742C128.519 0.637423 130.056 0.00180024 131.66 0H225.452C227.055 0.00180024 228.593 0.637423 229.727 1.76742C230.861 2.89742 231.498 4.42952 231.5 6.02759V70.4762C231.498 72.0743 230.861 73.6064 229.727 74.7364C228.593 75.8664 227.055 76.502 225.452 76.5038ZM131.66 0.532011C130.198 0.533662 128.796 1.11318 127.762 2.14345C126.728 3.17371 126.147 4.57057 126.145 6.02759V70.4762C126.147 71.9332 126.728 73.3301 127.762 74.3604C128.796 75.3906 130.198 75.9701 131.66 75.9718H225.452C226.914 75.9701 228.315 75.3906 229.349 74.3604C230.383 73.3301 230.965 71.9332 230.966 70.4762V6.02759C230.965 4.57057 230.383 3.17371 229.349 2.14345C228.315 1.11318 226.914 0.533661 225.452 0.532011H131.66Z" fill="#F0F0F0"/>
<path d="M115.734 81.9134V17.4648C115.736 15.9372 116.346 14.4727 117.43 13.3926C118.514 12.3124 119.983 11.7048 121.516 11.7031H215.308C216.841 11.7048 218.31 12.3124 219.394 13.3926C220.478 14.4727 221.088 15.9372 221.089 17.4648V81.9134C221.088 83.4409 220.478 84.9054 219.394 85.9856C218.31 87.0657 216.841 87.6733 215.308 87.675H121.516C119.983 87.6733 118.514 87.0657 117.43 85.9856C116.346 84.9054 115.736 83.4409 115.734 81.9134Z" fill="#E4E4E4"/>
<path d="M119.424 82.0297V17.3542C119.424 16.8833 119.612 16.4319 119.946 16.0989C120.281 15.766 120.734 15.5787 121.206 15.5781H215.619C216.091 15.5787 216.544 15.766 216.878 16.0989C217.213 16.4319 217.401 16.8833 217.401 17.3542V82.0297C217.401 82.5006 217.213 82.952 216.878 83.285C216.544 83.618 216.091 83.8052 215.619 83.8058H121.206C120.734 83.8053 120.281 83.618 119.946 83.285C119.612 82.952 119.424 82.5006 119.424 82.0297Z" fill="white"/>
<path d="M157.465 101.022C158.916 101.022 160.093 99.8495 160.093 98.4035C160.093 96.9574 158.916 95.7852 157.465 95.7852C156.014 95.7852 154.838 96.9574 154.838 98.4035C154.838 99.8495 156.014 101.022 157.465 101.022Z" fill="#E6E6E6"/>
<path d="M168.413 101.022C169.864 101.022 171.04 99.8495 171.04 98.4035C171.04 96.9574 169.864 95.7852 168.413 95.7852C166.962 95.7852 165.785 96.9574 165.785 98.4035C165.785 99.8495 166.962 101.022 168.413 101.022Z" fill="#E6E6E6"/>
<path d="M179.36 101.022C180.811 101.022 181.987 99.8495 181.987 98.4035C181.987 96.9574 180.811 95.7852 179.36 95.7852C177.909 95.7852 176.732 96.9574 176.732 98.4035C176.732 99.8495 177.909 101.022 179.36 101.022Z" fill="#E6E6E6"/>
<path d="M168.411 68.6975C164.639 68.6975 160.951 67.5827 157.814 65.4939C154.677 63.4052 152.232 60.4364 150.788 56.963C149.344 53.4896 148.966 49.6675 149.702 45.9802C150.438 42.2928 152.255 38.9057 154.923 36.2473C157.591 33.5888 160.99 31.7784 164.69 31.0449C168.39 30.3115 172.225 30.6879 175.711 32.1267C179.197 33.5654 182.176 36.0018 184.272 39.1278C186.368 42.2538 187.487 45.929 187.487 49.6886C187.481 54.7283 185.469 59.56 181.893 63.1236C178.317 66.6873 173.469 68.6918 168.411 68.6975Z" fill="#F47738"/>
<path d="M175.94 47.8137H170.295V42.1884C170.294 41.6916 170.095 41.2155 169.742 40.8645C169.39 40.5135 168.911 40.3164 168.413 40.3164C167.914 40.3164 167.436 40.5135 167.084 40.8645C166.731 41.2155 166.532 41.6916 166.531 42.1884V47.8137H160.886C160.388 47.8146 159.91 48.0125 159.558 48.364C159.206 48.7156 159.008 49.1921 159.008 49.6888C159.008 50.1856 159.206 50.6621 159.558 51.0136C159.91 51.3652 160.388 51.5631 160.886 51.5639H166.531V57.1893C166.532 57.6861 166.731 58.1622 167.084 58.5132C167.436 58.8641 167.914 59.0613 168.413 59.0613C168.911 59.0613 169.39 58.8641 169.742 58.5132C170.095 58.1622 170.294 57.6861 170.295 57.1893V51.5639H175.94C176.187 51.5645 176.432 51.5165 176.66 51.4227C176.889 51.3289 177.097 51.1911 177.272 51.0172C177.447 50.8433 177.586 50.6367 177.681 50.4092C177.776 50.1817 177.825 49.9378 177.826 49.6914C177.826 49.445 177.778 49.201 177.683 48.9733C177.589 48.7455 177.45 48.5385 177.276 48.3641C177.101 48.1898 176.894 48.0514 176.665 47.9569C176.437 47.8625 176.192 47.8138 175.945 47.8137H175.94Z" fill="white"/>
<path d="M29.4425 143.596C29.0276 140.93 28.2182 138.341 27.0407 135.912L26.869 135.558L25.594 136.967L26.5387 134.869L26.4769 134.747C25.6433 133.102 24.7194 131.505 23.7094 129.962L23.5221 129.676L23.2723 129.952L23.4472 129.563L23.3596 129.432C22.1088 127.563 21.1478 126.38 21.1383 126.368L20.8665 126.035L20.6917 126.432C20.6597 126.505 17.4834 133.799 17.0627 141.006L17.056 141.118L19.1937 143.693L17.0137 142.329L17.0175 142.824C17.0241 143.671 17.0819 144.517 17.1907 145.357C17.2867 146.08 17.3997 146.786 17.5297 147.474C17.7358 147.48 17.9362 147.543 18.1094 147.654C17.9588 146.885 17.8289 146.094 17.7197 145.282C17.6355 144.634 17.5825 143.976 17.5614 143.319L21.7781 145.957L17.6023 140.927C17.9825 134.834 20.3423 128.695 21.0048 127.074C21.3604 127.534 22.0311 128.426 22.8335 129.618L21.3748 132.858L23.4544 130.56C24.356 131.959 25.1865 133.402 25.9427 134.883L23.6966 139.873L26.7335 136.517C27.7942 138.79 28.5285 141.201 28.9146 143.678C29.4461 147.679 29.3423 151.523 28.6223 154.501C27.9327 157.354 26.7173 159.107 25.2876 159.312C24.9934 159.353 24.694 159.335 24.4066 159.26C24.1762 159.423 23.8989 159.508 23.6163 159.5H23.5383C23.9818 159.746 24.479 159.879 24.9861 159.888C25.1114 159.888 25.2365 159.879 25.3606 159.861C27.0414 159.621 28.3838 157.765 29.1401 154.636C29.8763 151.59 29.9841 147.672 29.4425 143.596Z" fill="#E6E6E6"/>
<path d="M24.7394 159.675C22.5407 159.675 19.3706 158.47 16.2263 156.276C15.7635 155.95 15.3215 155.596 14.9031 155.216L14.5509 154.895L15.8824 154.513L14.1094 154.448L14.0346 154.37C10.7112 150.902 8.64315 146.002 8.62256 145.953L8.46094 145.566L8.88115 145.585C8.92299 145.587 9.92204 145.634 11.4235 145.846L11.5171 145.86V145.859L11.8464 145.909C13.0725 146.094 14.2871 146.349 15.4845 146.671L15.6124 146.705L16.0119 147.686L15.9513 146.806L16.3178 146.912C18.0549 147.411 19.7049 148.174 21.2101 149.172C25.9918 152.509 28.6377 156.679 27.239 158.67C26.7609 159.35 25.8809 159.675 24.7394 159.675ZM15.6254 155.14C15.9175 155.387 16.2214 155.621 16.5332 155.84C20.9127 158.897 25.6151 160.052 26.8016 158.365C27.9878 156.677 25.2893 152.668 20.9091 149.612C19.5578 148.716 18.0855 148.016 16.5365 147.533L16.7733 150.969L15.2176 147.15C14.193 146.879 13.1448 146.656 12.0954 146.486L12.2673 148.98L11.1966 146.352C10.367 146.238 9.69823 146.177 9.29144 146.145C9.84603 147.359 11.6786 151.107 14.3462 153.925L19.2392 154.103L15.6254 155.14Z" fill="#E6E6E6"/>
<path d="M55.924 88.7165C55.9221 88.3108 55.831 87.9105 55.657 87.5437C55.4831 87.1769 55.2306 86.8525 54.9172 86.5935C54.6039 86.3345 54.2374 86.1471 53.8435 86.0445C53.4496 85.9419 53.0379 85.9266 52.6375 85.9997L47.7617 77.418L45.75 81.527L50.4096 89.4307C50.5775 90.093 50.9832 90.6709 51.5501 91.0549C52.1169 91.439 52.8054 91.6025 53.4851 91.5144C54.1649 91.4264 54.7886 91.093 55.2381 90.5773C55.6876 90.0616 55.9316 89.3995 55.924 88.7165Z" fill="#A0616A"/>
<path d="M77.7253 98.255C77.5328 97.8975 77.4214 97.5023 77.3988 97.0972C77.3762 96.6922 77.4431 96.2871 77.5946 95.9105C77.7461 95.534 77.9786 95.1951 78.2758 94.9178C78.5729 94.6404 78.9275 94.4314 79.3145 94.3054L79.4947 84.4453L83.7356 87.344L82.9143 96.2629C83.0836 96.9248 83.0034 97.6256 82.6888 98.2325C82.3743 98.8394 81.8473 99.3102 81.2077 99.5558C80.5681 99.8013 79.8603 99.8045 79.2185 99.5648C78.5766 99.3251 78.0453 98.859 77.7253 98.255Z" fill="#A0616A"/>
<path d="M48.1968 87.5387L51.6872 84.2778L49.8959 66.6689L51.9684 41.7773C47.4664 43.1873 42.6325 46.9749 41.8363 51.6101L38.9883 68.1907L48.1968 87.5387Z" fill="#E6E6E6"/>
<path opacity="0.2" d="M50.2229 57.2148L47.3867 68.5193L51.6868 84.5605L48.9139 69.3888L50.2229 57.2148Z" fill="black"/>
<path d="M78.3024 93.6279L83.9743 94.28L82.6463 52.3085C82.5869 50.4331 81.9869 48.6144 80.9179 47.0698C79.8489 45.5252 78.3562 44.32 76.6181 43.5984L74.5938 42.7578L75.1391 62.4319L78.3024 93.6279Z" fill="#E6E6E6"/>
<path opacity="0.2" d="M76.1779 63.0742L78.3671 87.2972L74.6602 63.2431L76.1779 63.0742Z" fill="black"/>
</g>
<defs>
<clipPath id="clip0_4327_82900">
<rect width="231" height="160" fill="white" transform="translate(0.5)"/>
</clipPath>
</defs>
</svg>
