<svg width="20" height="21" viewBox="0 0 20 21" fill="none" xmlns="http://www.w3.org/2000/svg">
<path d="M7.5 5V8H4.5V5H7.5ZM9 3.5H3V9.5H9V3.5ZM7.5 13V16H4.5V13H7.5ZM9 11.5H3V17.5H9V11.5ZM15.5 5V8H12.5V5H15.5ZM17 3.5H11V9.5H17V3.5ZM11 11.5H12.5V13H11V11.5ZM12.5 13H14V14.5H12.5V13ZM14 11.5H15.5V13H14V11.5ZM11 14.5H12.5V16H11V14.5ZM12.5 16H14V17.5H12.5V16ZM14 14.5H15.5V16H14V14.5ZM15.5 13H17V14.5H15.5V13ZM15.5 16H17V17.5H15.5V16ZM20 5.5H18V2.5H15V0.5H20V5.5ZM20 20.5V15.5H18V18.5H15V20.5H20ZM0 20.5H5V18.5H2V15.5H0V20.5ZM0 0.5V5.5H2V2.5H5V0.5H0Z" fill="white"/>
</svg>
